<mxfile host="Electron" modified="2023-10-24T17:27:10.345Z" agent="Mozilla/5.0 (Windows NT 10.0; Win64; x64) AppleWebKit/537.36 (KHTML, like Gecko) draw.io/22.0.2 Chrome/114.0.5735.289 Electron/25.8.4 Safari/537.36" etag="iBjaW61PebF8ds6hOJt9" version="22.0.2" type="device">
  <diagram name="Page-1" id="nfrdmUlM9u8_CqGyJtDN">
    <mxGraphModel dx="1562" dy="917" grid="1" gridSize="10" guides="1" tooltips="1" connect="1" arrows="1" fold="1" page="1" pageScale="1" pageWidth="1100" pageHeight="850" math="0" shadow="0">
      <root>
        <mxCell id="0" />
        <mxCell id="1" parent="0" />
        <mxCell id="2SMoEjUvvKUqLIdtaoxj-1" value="" style="shape=image;aspect=fixed;image=data:image/PNG,iVBORw0KGgoAAAANSUhEUgAABsIAAAGeCAYAAAAubxRKAAAAAXNSR0IArs4c6QAAAARnQU1BAACxjwv8YQUAAAAJcEhZcwAAEnQAABJ0Ad5mH3gAAPErSURBVHhe7N0JmBXFuTfwPM93l9wly81qMC7MwAADAww7DAgCM0QEFVxAQBARRAQVEMWwDAqiKO6IiCJRQcVRBKOjUUAnUeaq43KN2xUVEq8SiQqoiFt8v36ru8+prn67T59t5sw5/36eX2B6qa6urnOY1N/q/t4hhxxCAAAAAAAAAAAAAAAAAPkGQRgAAAAAAAAAAAAAAADkJQRhAAAAAAAAAAAAAAAAkJcQhAEAAAAAAAAAAAAAAEBeQhAGAAAAAAAAAAAAAAAAeQlBGAAAAAAAAAAAAAAAAOQlBGEAAAAAAAAAAAAAAACQlxCEAQAAAAAAQM5r164d9e7dmwYOHEiVlZUAAAAAANDI+Hdx/p2cfzeXfmfPVQjCAAAAAAAAIGe1bNmS+vbtSwMGDKAuXbpQ+/btqVWrVgAAAAAA0Mj4d3H+nfzoo49Wv6Pz7+rS7/C5BkEYAAAAAAAA5CT+P9b8X5327NmTWrduLf6fcQAAAAAAaFz8uzn/js6/qzeHMAxBGAAAAAAAAOQk/q9M+f9gS//nGwAAAAAAmhb/rs6/s0u/y+cSBGEAAAAAAACQc/i9A/w4RMwEAwAAAADITfy7Oj8mMdffGZb1IOywNh1pyIpnqcPEJfSrI1uL+wAAAAAAAADo+CXc/P4B6f9wAwBkA7/3ZPr06XTrrbfSvffeS/fddx+tW7eOli1bRsccc4x4DAAAQKHr2rWr+t1d+p0+V2Q1CDu8Y2+quPwJqrh0M534+8+U9qdVU4uituL+AAAAAAAAAIzfN8CD0tL/2QYAyLSjjjqKVqxYoYKv+fPn0wknnKDCr3HjxtH1119Pd999twrJpGMBAAAKGf/Ozr+7S7/T54qsBWFH9qikXkufsF3yezrhoc/ohM0W588jjzpRPA4AAAAAAABMxVRcLK3PX5WVleL/0QYAyLTOnTvTtddeq4IwHsiT9jn77LPpzjvvpMmTJ4vbAQAAChn/7i79Tp8rshKEFR01krpf9oRtyePUfdFDNHzTZz7SsQAAAAAAAKArppGXPUjb69bQeeXS9sZVUVFBw4YNU+8DkLZnCoIwAGgs55xzDq1du1Z9t0nbXfPmzaNbbrmF+vTpI24HAAAoVAUXhLX6zelUfukfqHzx4/afbOEmGvrgZ5ZPnT9t0vGNoUePHlRbW6ue9cw/n3XWWVRXV6f+NPfNZe513HTTTZ6f3etqThrrHnDbcBtxW0nbm5vmfM8h/2Wrf/L/+eTvC35MibQ91zS3+gIAQK5xQrCG7fTgZSOpWNyncXXq1IlOOukkOu6447IahiEIA4DGUFJSQtddd516HKK0Xfeb3/yG1qxZEz4rbOKtVNfQQA26J2+lCdK+SVlE93NZ9y8StmWYdA0x99Mi3ufS++N/zxTnvHW3TJC3J+Icf/8a/rOObp0YsP1Sab2wf2T2vfGVm8MW3W/dy4z0SwAAW14FYb8q6Ugdb3iN2sy+m37Vqr13W4sW1ObEmdTxkj94LXqMWo+tpt9s/MxHPz7TeODV/MfaHYg0B2dzIQjjMMusb319fWid3OvIhSCM68n11evv1iuKxroH3DbcRtxW0vZc4LYlD55L23m92zea8p6nS+ozLOi6Gwt/R3BfNOuVTH9uKm5/MOvuauwwJlv9M9vBEt/roO8JPney3yHZri8AAOSzYhpSvSGnQjCXG4bxO3SyFYYhCAOAxsCzu26++eZIjzzk0IzfFzZnzhxxu6JCFW9AlHuhAwc3EYMf4XqUDARhE26x/r93xoK9CXTrk24YZf/dF6ipOlv3wjwnr0/r/jS/IMzbXgAA6curIKxk3kPU/rrXLK+qP1t0tS+uxa8PpzbjFlH76lrLo47H1J+HDxyj9ql84DOqvP9T60+L+jP7QVjUwdfGCmHChA28BnEHmcMG6FMpN1l6MOOu478vX77cs1+YTN+DKG2Tq9y6B/XfZPp2ruL6m32GcV9q6nvmBmFcF3cd15Pr29z6Uz70FUm2g6Ww700+d7LfqdmuLwAA5KvcDcFc2Q7DEIQBQGMYPHgw3XrrrTRhQrRZSByEVVdXi9sUMThKInhqFHkYhHE9tTBLhY9G2byu7knrnEboJe2bnOYYhFnSDgABAOLyKghr0X0Itb32VY9fD5tBbSYtp7YX1lDbeb+ntgtqY1p06BU7dmDNpz562ZmWzABwpkOYVKQSWEUJe1IpN1nczukGBJm+B1HaJpdxvaWBcymkaW4ao0+mI6iNud7NLVRK5nuwOUEQBgAAhWDA/NwOwVzZDMMQhAFAY+jWrZuaERY6y8vBs8f4HWEzZswQtyuBQZg5W2mR+rNBD6TUsbzO4QkphFlOxv7+Rwra5/WU586KikkQZiUKwjx18O+nQibfdvta4uvdupuBkrFfSGjDoZrn+n1BnRP+Xcr11UNA/8wob53NgMuto9u2fA6z3s62WH3dfR2x0M09znud5n301kcIMM1+o4V6cvu7+PwRA1EAgATyKghjv+pYQa2u/jO1tvCfyhXPUesLH6BWF2ygVhc/REeedjkdcniR57j+933qo2/PtLABYDMkkUIYdzDc/cci2wP3UcIBrp/+KLnbbrvNcx36dbl/d/fN5jVwO0cpm+ul10cPGlK9B1yGXibvc9FFF/keuee2kdQvzHqZ291BbP5TL1evf6YFhTFuXdwBdf2eu/uEtZt5/e7x+jo+fsuWLZ57kSlB1xWG93WvxbyebAiqo9l23Ob6z8zsx+7P7n1zr0G/X9lk1pmF9Q/9GObW1e0n7neOeyxfl1me3m7uce716j+75TOzDmaZ/Hde525321Nfl0lcP7NOLj63tE2/HnO2o1lft315fdAxAABQ2JpLCOZyw7ARI0ZkNAxDEAYAjYXfD7Zy5Urq3r27uN3Fj0/83e9+p77vpO2KFBypdW7g4IYeRgChghvvOhVixMIU+7hYSOIpk8lhjB6qLLpFD2YiBiDS9TA3UDPq5wthtJ/VDDAtzPLPCPNeg3l8vP4mf5jlu8bYdRj7SvdGr5Pa7m9Xf8jm7mOWYf8cvw/Wz7e429yy/Pcxvr/1c0gb+usXLz9R+7t187YbAEBq8i4IU9p0oZZXvWL5s9e8WmrR7yTxmL4bPvWR9ssUd6BR2mYOzpqD1+4grD6gy2UFDYxmQtjAK+O68UCpWSf+pUMaZHb3SVRuJrjtFTYwbdbDvJ5U7gGXqQ8e83oeqOc/mdkWbhl6v+C/6/V2j9PP4w5Wm+cOu95MMOsqrTOvM1G78Xq93u590NeZ+2RSsmWb95jx9WSrfozL5fL1NuS/m/Xgupn3h7fzse5+Qe1rlpUtZn+Rrk3vH+7P3N/1fdx+ptebr98McMzPhdk/3Z/18t06ufswfqyq3j5mHflY/TyZxnXRz6fjc5vbzHbmffR2MevrtrF+DJ+zsfoFAADkunm0wfp3gv+tSN4GmieWmRz+P7GnnnpqSjL5f4ARhAFAYxk2bBitXbuWLrnkEvUeMGmfgQMHqkcoLloUDxZEvuBIDkY8YYuzzpwJZIci3pDG3YdDDnN/PVjyh0w6vdwEfNfjEII7zyws8TjveaMEYf42kXDbmNfjba/AtuE6u+GQXn+Nt552Hb31itdbhU+RwyapLOd8njI0RrsGtlGE9mfR2xgAIFx+BmHF7enwmRvo8Msb6PArX6HDl1mcPw+pmiwe0+feT6n3Pfupt/Mn/yztlynuQKPOHXQ0B2d54JEHKfXBXH2AUton0/icZn31wVauj1kn8zrMnxn/3Ry0zRa3zc0Bav67NMNIv6Zk74E7eO4OppuktmBh53SZ681BbZbo/JlgDp5L7WheZ5R208tw+4e5ziwjU/iazP7I5+X2dfu9e+6gNs5227vlu/XR66RL1Nbuz3xtel2D+mY2cP30OkapM28375FUZ7edpHXu9ZrHuT+bdeDt5jl1XB6Xy+VLP2ca10e//ya9rtxu/PnR62Jet1nfqG0MAACFqpjG3/iE9W/OdnrwivE05JghSaigdmKZySkuLqbS0tLIOnbsSMcffzydcsopajaFVGYqEIQBQGPp3Lmz+g/yNmzYoP7k0MvdxsHY2LFj6fbbb6drr71W7asf66MCCO//h/AGDVLo5Q2AzH3t9fpx9t/1c8SoAEU6h84fiAQKDcKM9fo69Xehfhb3OhMFYfEyhPN7yNcTD5T0drRwuU7QpAdBgQGUtr98r+x10vvHmCqXr8O3TSrL4jmfxden3PYIOJ5FaH+GIAwAMiX/grC23ejQCx6kQ8+927b4v+nQK/7H41eTb6FfHnak57ie93zqo2/PNB5oNAdbXeaAozQQLP1Dkc3/Wj9sINitrz6Yrq93r0MaSA0rN1vc9nPry22mBx069x4lew+YOfisk9qCcbnuObl+Utu4x7r1NwexGf+d15n3JJPMc0j1Na8zUbtJ+3O5/CevM68907hcsy11+v0Ju8dufc31mSC1O7eh2SZ8freuLq4zH8t/Sj8z8x5kk96e7s9m32D6d5t5DJPqLH0GzHXmcUHXzj/zet6ur9PryOW6fYHL13/ONKk+Lj63vo1/1uupc6/TrK/UxmHrAQCgEBXT+JUchtXRugsGCNtzx5FHHknHHntsxkMwhiAMABoDB108E4wfeciPPrzxxhtVILZu3Tq68847af369XT33XerxycmDMFYUHAUI4VUcpCTKAgLDjCM4Mcn6HyCtIKwsHaIEITp+/H/z/Lsq+PrFa4nVnfzet2fve3kr4/DE0xJdbTXqSAspF3VbDHeL3bf5OvVz2dfu1am536Y16WJ0P4MQRgAZEpeBWG/7NiPDpm9mX45exMdMvMB+uX0dfTzfqPpVzPuoUOW/g/9cunLnj9/0b537Nhu6/dTVwv/6dLLzrSwAUVzMNYcrObj3G2NJWzg1a2vO7hsrnfrav7MwsrNJv283K5hoRVL9h4kKlNqC6b3C3NA2+Ue67a3OYjN+O+8zrwnmabXV2oT8zqlfUy8nY/hR9fwn3wtblvMnDkz4b1Kh3mfTfr1ht3jKNeZKuneum2m9xVe59bVZV6fdL1BfTMb9PZ0f050XvMYJtVZaidznXlc0LXzz277umW4P/N2Lo/XuX3B/DnT9PqY2/jcZt2C9nWZ9ZXaOGw9AAAUKjcM204b5udmGJbNEIwhCAOAxsD/P5hDr9NPPz22rk+fPur/x5133nl04oknRgvAXCkFYUHBlh50ePdRoUpgMJRoe0iAYko1CFPHhZ8jahAW3xZUnjfQinPKu18PspjTltZ6z7UFhEfeekp1jK+zgyuhvVy+IMtf7/j5hOvyHB/Ub9z9Et3joHYDAEheXgVhP59wHf185ibHg3YwxtsOPYx+Mf4a+vllL/sNmKD2KV+330cvO9PCBhR5wJIHLt3BWHOwOmwQNFvCzunW17wed8DYvQ7zulhTXAvTB37devI6aV+W7D1IVKbUFkzvF+Y5XeZ6cxCbRbmmTOA6cBg0ZcoU9adZV/M6o9xvt0x+3IPbFnw9fJy+Llv0exC2LaiNs932UvnuOr0/SW3Nx+izq/hPPk6/b0F9MxvMto7SP8xjmFTnsHZy15nHBV27Xi8+lsvgstzt5jppn0wKayc+t75Nuscms75SG5ttBwAAYMvdMCzbIRhDEAYA2cbhF4dgHIZJ21MSFBzFBIQXKoTxBhfeMMs4Tp3HCDGsMmI/C9sX3RI2qylA0PUkCsIsqv5mAHV//GcV+Hi26/Xy7pso2OGypEBI1cEq0wwF7cDKXG+3sWed77zhQRj/bJ/TbQdrm16ep43s4zztaJxP6gOe/X39xtrnFnv/RO1vnz+4TQEAkpFfM8KK2tF/nfcg/XTMMvplyzbG9l/Rz0bMpf9a/JLXpS/ST069gjretZ863mnhPx3e4zNLGmh0mYOx5kAm/8mD2fpgLQ9S8ktR3Z8zLWzglfHgKP8DrQ+S8vXxOree5nW5x2VzwJhxu+jlu/XQ25//btaDQxe9zZO9B7xNDx34vLfddlusDaU+YK4z6yXVXWpD/juvy/agtV4fvU7mdredorSbe4zen/R1+rHZ4LYdn4/Pq28zr9O8x+4+0rGZEnRv+We9Lm5bu/u5x5n78Dq9/uY9yyazPd06h/UP8xgm1VlqJ3OdeVzQtfPP7j0128wtk/HfeR2Xr/+caXp9zG18bn2be03m/vr3ollfbl/zs8brsnlNAADQnOVeGOaGYCeffDJ169ZN3CcTEIQBQDbxTK+1a9eqRx7y4xGlfVISFBzF2GGGOItHhRocdDiEkMZznLm/J/SwqLpo27XyYkFQaF0tQddjhF7yOje4iZMCJF5vX5cUKLkSBDZcT/P6mdNG3vNanLbx3wezzuZ5vXWU17ll8LFmeXr7uMfF24EFtZEq71Lhfhj9IH5NCdqfj5PaDAAgBXkVhEXxs6op9MNLXopb9AL98Ld/og537veRjs8UaTDX5Q5cuoOQ0mC1O2Ds/kOhD25nA9dF/4fJpQ+U8mCqvm3JkiWe6zCvS1/H+5sDtZniDurq9DoE7affn1Tvgdlu+nn14931Ur8w62XWXRp057/zOt6m75sN7jVK55LuedR2M6+J10n7Zot7XTqzTtJ+5v3LtKB767a1/jnS6+Yew3+6bch/6j/r5fCx7rpskfo71yWsf0jHSHWW2slcZx4XdO38c1i7cmjOf7p9w21ns69kilkfHZ/b3OZel1tnpl+jWV+3jZl+ndm6HgAAyAft6MxVT1DD9g00p1za3rgGDx6c9RCMIQgDgGw54YQT1DvB+N1gGQ3BssoONXyBDjiaY/tIoVpjQX8CgMwquCCM/bTiZPqPRS/Sf1SzBvqPuXXU7nf7qK2Gf5aOBQAAyGdS2AgAAJBYO2rXQVrf+A4//HBq3bq1uC2TEIQBQDYcddRRdMstt9C1116b3Lu/mpo0Awu8nFlezSfcabogzP/YRACA9BRkEMZ+Wl5F31/4In1/QQN9/8KnqGTtPo9f9jtFPA4AACCfIQgDAACIZuDAgVRaWir+H20AgFQNGzaMli1bpgIxaXuuiT/CEO9yyj9NOSMMACBz+Hd2/t1d+p0+V2QtCGM/a9eL/vm3z9I/zXyCim/fR8Vr9tGvTr2Mftmyrbg/AABAvkMQBgAAEE3v3r2b12wNAAAAAIACVF5ern53l36nzxVZDcLYz4o60I8nr6VfjV1GvzysSNwHAACgUCAIAwAAiKZdu3Y0YMAA9RhG6f9wAwAAAABA0+Lf1fl3dv7dXfqdPldkPQgDAAAAAAAASEXfvn2pR48e4v/pBgAAAACApsW/q/Pv7NLv8rkEQRgAAAAAAADkpJYtW6r3DfTs2RMzwwAAAAAAcgT/bs6/o/Pv6vw7u/S7fC5BEAYAAAAAAAA5i/+PNf9XpvzIlS5dulD79u3F/zMOAAAAAADZxb+L8+/k/Ls5/47eHEIwhiAMAAAAAAAAch6/d4Bfws3/1WllZSUAAAAAADQy/l2cfyfP9XeCmRCEAQAAAAAAAAAAAAAAQF5CEAYAAAAAAAAAAAAAAAB5CUEYAAAAAAAAAAAAAAAA5CUEYQAAAAAAAAAAAAAAAJCXEIQBAAAAAAAAAAAAAABAXkIQBgAAAAAAAAAAAAAAAHkJQRgAAAAAAAAAAAAAAADkpe+1b9+eAAAAAAAAAAAAAAAAAPJNwcwI44uV1gMA5Br15Tz3VQAQ4N9zAAAAAAAAAABIBoIwAIAcw99XRxxxBAAI8O85AAAAAAAAAAAkA0EYAECOQRAGEAz/ngMAAAAAAAAAQDIQhAEA5BgEYQDB8O85AAAAAAAAAAAkA0EYAECOQRAGEAz/ngMAAAAAAAAAQDIQhAEA5BgEYQDB8O85AAAAAAAAAAAkA0EYAECOQRAGEAz/ngMAAAAAAAAAQDIQhAEA5BgEYQDB8O85AAAAAAAAAAAkA0EYAECOQRAGEAz/ngMAAAAAAAAAQDIQhAEA5BgEYQDB8O85AAAAAAAAAAAkA0EYAECOQRAGEAz/ngMAAAAAAAAAQDIQhAEA5BgEYQDB8O85AAAAAAAAAAAkA0EYAECOQRAGEAz/ngMAAAAAAAAAQDIQhAEA5BgEYQDB8O85AAAAAAAAAAAkA0EYQJMYQvNWbaAN96Rn1cVDhLKTcMw8WuUpcx3dcM4A337FxcW+dZA9CMIAguHfcwAAAAAAAAAASEZ2g7DDutHoC5fS0qVRVdOMoaVyWWnCwBnkltG0alsDNWzfTtufTtGzDVS3crRQdhJOWk6PaGU2NFh12raKRhv7nX17HTU8sYEWjWrnWZ+eYuo+cAgNOSY9A7rlX0iXvSDsJJp5xTK6IpFFU6iveDxA08O/5wAAAAAAAAAAkIzsBWEtypMMwVzZCcMwcAa5ZSTd8FgDNTx2A40vlraHKx63nB7Z3kBPXDdS3J604vG0/JHgIKzdsLNp6T111vbt9MjV46nY2J4aJwzkc6Yh7TAwB2UvCFtMm994nV5N5Nk7aIJ4fB649BnaT0Q77hO2Qcb0nbeAFvSXt7mi7CPBv+cAAAAAAAAAAJCM7AVhHUfTXA62pg6St3sMomm87yXVVL0kO2FYYw6czbvPP1i/Yb61bf4G6+91tGqMsD+HD2q7/1imjh+ziurMbW5o4W67b56nbDZ6ZZ2xfh5t8JSzgeY527guvmBBOK+qj7aPfc3+a7PP5V2v6qOVFSnIcOoQvK8TqgghTlC7i+0ptF/WDJhD6+qscz6xis7sIGwPUDzuBnqCZ4Otm0MDhO3JG2Ddv+3UsH0DLbryQbkNlWIaUr2Btjdst+6///GJkDnZC8KywAmWzGX/9iXy/k3uXtph1a/pgrAl9IzQYGHtde/bvMMztMRdJ7b5fnrmUu9xTeakO+jVL4m+/GAbLQkIuvou3UZ7eJ/X7qARwvYwCMIAAAAAAAAAACAZuRWEzR1N3bpZx2UhDGvsICwosFGBkR62qDAmHkS5/OGVJWDf2LZtddZ2f+DjKUuVYewzf1XsZ1/dnXDOG3w5QZpWP3WcdX5/kOQNwnzXzwHWSvMYQez6Aq7fDRF9IQ4HZHW04T7rWDHg08uzrytSMJcpA86mNU9wGLaGzh4gbDcMOGcNPWHV8Ynbz85QCHYIFZ+/jrY3PEGrxhXb7RgYhLFiGr/yCWrYvo7OS2EmG0STvSCsMw0ccRwdZxjSt1TYN6L7VKxE90rbErJDodwNzTJryXY7vvJdL7ehHnTpVOjltq8bovlDLw7LcqkdY0HXzkd9s776znuU/pogKAuDIAwAAAAAAAAAAJKRc0FYmfXzoVkIw3IlCHPDFjtYsmcxSfumFIRZ21bxcUaQ4SkrQdDhrbteV5M/4KpbuUrYX9/Pvl65vAScAK9OPN4p9z7h2lSAZq2T2k5YJ7Z7tnU4k1bxYxLr1tGckDBswAXrrPo20BOrzqR2wvbUdKdFmxpo+7o59uMOh51Niy4aT919+2mKz6Y1dQ304KXd5e2RDaF5qzbQhnvSs+riIULZzVv2gjD50YjPrj1d2DcaNVvp7XvFbYnx7KwcmsmURXYIluy16kGhE4IFBWY5KBZ4aWGYtC5ZCMIAAAAAAAAAACAZuRWELZhGI4ZUUZVl6PgLaDGvW1pNUwYcIRyTnNwJwpywhcOZkFAq1SBsnhCuecpS+/lnjbk8dU8iNIv9Xc3M0uvoD8wCgybfsRr3+qQ68baA9uRrt+sohHBCezZJEMbcd3Q9vYEWVRX7tg+wrm07h2A3Zur9XC6+P9tp3fnStmBn327V9Z5022kkLf/9dtr+dHoeuTr996QVdxtAQ/q182/rUEFDjqkQgsd2VHHMAOqepVlx2QvCMi18Rpc/JIuHOS/xNs+izSozHv3nKV9tswMlVb6zeOtgP/4wtmjhkRTcuTO13MV8bGLsGE+99Flw9vmCZ2Ql2i5T9XLrrmbepRAa8nFRg8pk9o0oFny9vYkuvGAT7UgzBGMIwgAAAAAAAAAAIBm5FYQFmDuqTDgmOY0dhHneO+ULd+xQRn6nli04CPOWHQut9FBH/T1etq8sFThZxwshlx5uJQqF9O1mKBY/zhuExa9dmNkVJQgTAq3YuX1BGO8b0g5mEGa0W6MrHklLN/G7uh6kpSPcMKyYRl72oHov1yNXZzoEs6hrfoJuOEnYFmLI1Y+EhqTNSs9F9KD6PNXRmjP0bcNo+SN2X33k6mHa+kPozFutvsTHPLKchmjrM6X5BGEJ3relhVb8sxlCeYIelwp8tDKNMuztO2iHVZa7jx1keR8fGA+drDrGzmlv0+trh2laqOULnJzy3t5B+2N1NYOtBEGXU+d4cBZBgraLLJlwK5l9k9B3hh2A8cKB2LlphGAMQRgAAAAAAAAAACQj/SCsqJwGObO4PEZOo2oOsiIFYSXUSypj/AXNNgiLBVSikDDIERyEJQqK7J/144MCLbXeqoNe10wEYd7wywzCXLye2yDgekza9XnqpV+3GYSZP5vtp36274OSC8FO8RBa/nu9Le2+8sR1IzMfgjHVBskHYSNvfKIJ2quYij0zsMyfU1RQQZj8aESfZ++gCeLxBs8MKXfRQyQ7wOGASAq93G3uz3Kg5A3b3NlbnvDNEzR59/cICNW8AZUQpPEJPXU39wknBn6hzPKTO58HgjAAAAAAAAAAAChw6QVhLcpp9IX+GVwekYKwAIOnqTLyLQiLBTm+GUzCPvp6M8gJ3WYHTRy0hQda8f34Z0/dQ+rH9H3Na1bnVMcGBWHmfvL2GM/1xcv0XJtRX65TLOTSxOrpKdMOnMLuW2PxtqV/BlxmcVsm/2jE89ZtD+lTUUV9NOIjtPykQ2jk1U9Qw3brfqn3qBXT+JX2z3PKzXKTVziPRuxMA0ccR8clMrQvlYrHe0UKeFTYZC2+/YTAyhdM+UMoaWaUWQ97lpcQhhnly7OsjNDJDM+UkLBNoM6TTBAW0A5JBW9Bi1GPZPZNBR6NCAAAAAAAAAAATS2tIKz/ZA67qmnaSGE2V1IzwgLkYxCmwhc3GAoOX9IPwiwcDFnrVoUGYWGBVliI5d3mv2b32laFBmGh16Qz9uP28ZXtCcIC6q7vY55b/RxS10bSuEFYd1q0qYG2r5sTfcZZ8Rxat72BHry0u7w9su40/qJFtKg6kTk0vqe1f4czadUTDdTwxBpauvKR7D0uMgdkLwjLLDlI8nKDFl+IIwRMUijjPU4OoLgevvLdAE6rnzcwC5pl5T2H9xiHqrs5kyyYfV1R95eu0a5rSrO1uB2iHpfMvhHEQjAt+JLWJQtBGAAAAAAAAAAAJCOtIGzQVA7C5tLojsL2pN4RFiDvgjAh+AoIXzIShFm4LmomlDZryhuqcGAUMCPM2d//LjP7GH0/8ZpVnfj87vHW9d/nnf3lmRHmBHeRrs8tW28jPeTS/+6hBWRCm3nqo7bHr121pdaOkR/rmCRvW2Y7CDuEis9fR9v5Ose57yUL487EWkfnZWk2VKgOZ9Iaqz24Tz942ZC8DMFY9oKw8Ecjbr5MOiZIhMf1uTObpODIN+spIHTSJTs7y7O/WV+5/mZoJYV9CetpUvUIqKMhKFxMLkzTNFEQ1nfpNtoTEHjFwrAPttGSFMIwBGEAAAAAAAAAAJAMBGFZEAufNBxsqPVCOCOtDw7CvOXGwhgh1LHZoVWsLKEMPWTxhjCOBMcw8TiLug4zTNLL0q87mSDMwmV56hELv4TAUaPqwO0htpl9bHx7/gdhhxwywDrndvWYwUVVYWFYMQ2p3qBmYm2YP0DYnm3FNPKyB9X5tz9t3Yu6dTRHPSYx/2QvCDuJZl6xjK4IMPMk6ZgAicIdFXQFhVABYZJQ5r1va8EXlykeo53nbW27J2wLqIMeLqn99fPbx5jX6AmrPNcZzD6XVJZxfYFhl10X//Z7aUdYKMdlNnYQdtId9GqCoCsWlL12B40QtodBEAYAAAAAAAAAAMlAEAaQYxo/CLMUj6flj2ynhmfraMMVZ9OwDt7txd3G06J7ONTM5OMIndBRD0ZFdhg5pNoOwVQI5z4m8el1GXlHWK7JXhCWQU5o5FvevlcOfcyQxwm9ePHMyjLK1beJs6U85dqzw+KLN6BSx/OilRFbpxYj0PKEbC4jUFPnTxyEKdo1x5ZYXfxBncRtW30xw7Vc0HfegoSPPoyyjwT/ngMAAAAAAAAAQDIQhAHkGDXz7Fme9WTjMCjrQZjSjkZfuoHqnrUDKPf827c7gdS2DbRoVDvhuFQVU/eBQ2jIMYkMoO78GMYOZ9J552gz0fjnGfn5eMRmEYRBRokz5ECEf88BAAAAAAAAACAZCMIAcsywqYtoUbXX2cPkfbOjHVVMOM8673Jac+ty6895dPaI7nn7Pq5chCCswCQzqwzw7zkAAAAAAAAAACQFQRgAQI5BEAYQDP+eAwAAAAAAAABAMhCEAQDkGARhAMHw7zkAAAAAAAAAACQDQRgAQI5BEAYQDP+eAwAAAAAAAABAMhCEAQDkGARhAMHw7zkAAAAAAAAAACQDQRgAQI5BEAYQDP+eAwAAAAAAAABAMrIXhLU/yQ7CZk+gqiFVqRl/gR2EnVTqLz9JGDgDgOYCQRhAMPx7DgAAAAAAAAAAycheEGYpHTqDqjkMS8eFo6m8hVx+MjBwBgDNBYIwgGD49xwAAAAAAAAAAJKR1SCMlVYIM71iRtC0BVzGBTRB3D6IyovkcpOFgTMAaC4QhAEEw7/nAAAAAAAAAACQjKwHYeHKaPRcLmMaDRK3Zw4GzgCguUAQBhAM/54DAAAAAAAAAEAyEIQBAOQYBGEAwfDvOQAAAAAAAAAAJANBGABAjkEQBhAM/54DAAAAAAAAAEAyEIQBAOQYBGEAwfDvOQAAAAAAAAAAJANBGABAjkEQBhCMPx8AAAAAAAAAAABRpRWElRwzg6qXcpCVnuqpg6hIKD+T+GKl9QAAuYa/r6QAAAAQhAEAAAAAAAAAQHLSCsJY6dD0wrDqqVVU0kIuO5P4YqX1AAC5hr+vpAAAAAAAAAAAAAAAAJKTdhDWXCAIA4DmAkEYAAAAAAAAAAAAQGYgCAMAyDEIwgAAAAAAAAAAAAAyA0EYAECOQRAGAAAAAAAAAAAAkBkIwgAAcgyCMAAAAAAAAAAAAIDMQBAGAJBjEIQBAAAAAAAAAAAAZAaCsAw7/PDDqXv37tS3b18AKED8+efvAen7ISoEYQAAAAAAAAAAAACZgSAsw3gQvEePHlReXg4ABYg///w9IH0/RIUgDAAAAAAAAAAAACAzEIRlGM8IkQbHAaBw8PeA9P0QFYIwAAAAAAAAAAAAgMxAEJZhCMIAAEEYAAAAAAAAAAAAQG5AEJZhCMIAAEEYAAAAAAAAAAAAQG5AEJZhCMIAAEEYAAAAAAAAAAAAQG5AEJZhCMIAAEEYAAAAAAAAAAAAQG5AEJZhCMIAAEEYAAAAAAAAAAAAQG5AEJZhCMIAAEEYAAAAAAAAAAAAQG5AEJZhCMIAAEEYAAAAAAAAAAAAQG5AEJZhCMIAAEEYAAAAAAAAAAAAQG5AEJZhCMIAAEEYAAAAAAAAAAAAQG5AEJZhCMIAAEEYAAAAAAAAAAAAQG5AEJZhCMIAAEEYAAAAAAAAAAAAQG5AEJZhyQRhS5cupYaGhpg//OEPdOyxx/r2W7NmjWKulySzLwBkB4IwAAAAAAAAAAAAgNyAICzDogZhHFbV19fTnDlz1M8cgN11110IwgDyAIIwAAAAAAAAAAAAgNyAICzDogRh48aNoz/96U9qRpi03YQgDKB5QRAGAAAAAAAAAAAAkBsQhGVYlCCMZ4Ft27ZNBWLSdrZx40bPYxN1vC3VfQEg+xCEAQAAAAAAAAAAAOQGBGEZlqkgTIcZYQDNC4IwAAAAAAAAAAAAgNyAICzDogRheDQiQH5DEAYAIGvZsiUVFRVRq1atqHXr1lRSUkJt2rShtm3bUrt27ZTS0lL1PRiG93H352O5DC6Ly+Sy+Rx8LqkOAAAAAAAAAFBYEIRlWJQgjHFYVV9fr2aH8c/HHnss3XXXXepPaV8EYQDNB4IwACh0Rx55pAqjiouLfYGXHnq5wZdLD7ui0I/Vy3TPowdkXBeuE9dNqjMAAAAAAAAA5CcEYRkWNQhjHFjp7/NCgAWQHxCEAUChCQu+3LBLD7AakxuSIRgDAAAAAAAAKEwIwjIsmSAMAPITgjAAyHccHjF+/CAHSvw4Qg6YOGxqytArKq4j15XrzHXna+BrYQjGAAAAAAAAAPILgrAMQxAGAAjCACBfuQEYz6TiWVU8w6o5BF+J8DXwtfA1ubPEEIgBAAAAAAAA5AcEYRmGIAwAEIQBQL7hUIhnS3FQ5M76yocAzOReF18jXytmiAEAAAAAAAA0f40fhLU4gsoHjqYpM+dT9SVLaelSx+Jqmj9zGo0d1otKDhOOSxMPbkjrMw1BGAAgCAOAfOE++tB97GFTv++rsfA1uu8V42t3H50otRFAvuDwt0OHDtSpUyfq3LlzweHr5uvndpDaBwAAAAAAmq9GDMIOpbIhU2juEi38CrJkLk0ZUkaHiuWkhgc1pPWZhiAMABCEAUBz5s7+am7v/coWd4aY+z4xzBKDfMR9XAqHChW3h9ROAAAAAADQPDVOENailIZOq44FXfOnj6WqnqV0RAt9v0OpqEsFjZg8lxY7YVn1+SOo3LNP6nggQ1qfaQjCAABBGAA0R24A5s4A4xlReiAE7VWb6DPEEIhFV9pnFM24ci1tqq2j+voGamjQPFtP9dtqadOaZTTjlAoqFY4PUlpdo5W1hVacKO/n6jTwDFq4aj1t2mKd81mtDqzeWrdlE61ftZDOGNhJPD4f8QwoKQwqdJgZBgAAAACQPxohCCuiQVOdEGzBNBpedqiwj6GkP036rTM77MLRGQnDePBCWp9pCMIAAEEYADQ3HOgUFRWpkCfbs786tO9AZe07UqcOnam8QxfqUtaVupZ1p25lPahHWU/qWdbL0Zt6dfTidbyth9JTHcPHchlcFpfJZfM5pHNnCrcRtxW3GcKwBLqMo8UbtngDp1A1tFAqR1RBizdrx25eTBXifkdQ6bGzaPXmOu08CWxbTeOEcvIRPw5QCoIKHbeL1F4AAAAAAND8ZD0IKztprhNojaVeRfI+ohblNPpCZ2bYxAp5nyTwoIW0PtMQhAEAgjAAaE54ZpM7A6wxQrCuHbrRgE6D6ISuJ9P47pNpeq8L6MI+1VTddxktO2oFXd//dlox4A5adfTddNvRNZr71LobrW3X9V+j9uVj+Fgug8viMrlsPkdjhGHuDDFuQ6ltC13Vuaup1pz9lVASQdiJK2iLdmxNdamwXymNurSG6rT9IimgIKxQ3wmWCLeL1F4AAAAAAND8ZDcIKxpKM/gxh0suoBHthO2JFA2iadUchs2nsd2E7UngAQtpfaZ1796devToIQ6OA0D+488/fw9I3w9R8feV9IUNAJBJPJuJH/2VrXeAdezQkSo6HkXDu4xUIdV5vec6YddNKsi6acBdtProe+n2gQ/QnYM20/rBD9O9gx+jmson6P7KLfRA5TZ6sPLJmI0WXsfbeB/el4/hY7kMLovLtEOym9S5+Jx8bq4D14XrJNU1Hdx23IbcltymUlsXoqqL1svh07P1tGXzelp95WJafKnt2jU1tGmLu0/0IGzqGm2GV/16urjU3KeUzriulurdfXTP1lHtxrV0rVOHxZcuo9V3baLaOmd7AQVhUggENqm9AAAAAACg+clqENZtzHw1o2vuqDJxexRFQ2eoMhZP6i9uj4oHKqT1mXb44YerQXCeEQIAhYc///w9IH0/RMXfV9IXNgBAJvDspVatWlGbNm0y+h4wfixhn4596djy42ls94k0recsurhiMV3e7wa6ccDvVFh1X+Xj9GDVU7S56o9Zxefgc/E5+dxcB64L14nrxnXkunKdpWtJBbcltym3baHPECuduNozU8sNnmouO4MqfGFVXKcRs2j1w2ujBWGlF9N6bbZZ3Zqpvn2qqmv8IdjTtbT6ghHUydg3rpQqJi6mmo0rEISB2F4AAAAAAND8ZDEIK6PRc3k21wwaeoS0PaIW/WnSJTyrbBoNSuNdYTxAIa0HAMg1/H0lfWEDAKSD32XFAQ3PXMpEAMaPHuQgqaJjP6rqPJRO7jqGpvacSYv6XkUrj15H9w7+A22qqhODqqbAdeFZZFw3riPXlevMdedr4GvJxOMUuW3d2WGF+f6wcbR6mxE+1dfQ4mOlxxamrvSi9VrItYVWnGjs028h1ZiPZdyymqZ2MfYDMQBK1llr/qja+I9rzhK3R7OUNqp7tZGWiusFT62lszz7hpHLCauz1F4AAAAAAND8ZC8IKxlBF/C7wWaPoBJpexKqptmPRxzdWd4eBQ9MSOsBAHINf19JX9gAAKniQIaDGZ6xpIc2qShrX0blHcqpZ8feVNn5GDqr53l05VErad2g34sBVC7jOnPd+Rr4Wvia+Nr4GqVrTwa3dSGGYRWXbTKChi20emJmQ7AjjqigxZu1c2xeTBXGPp7HJrL6GlpY6d0HbFIAFNnZa+mPVvv+cc1aFTKlGoQtfZDv00ZaqwI1MwiTnEVrn7KOeXCpsC2IHYRtvFzaJpPaCwAAAAAAmp/sBWGdR9N8DsKmDpK3J6Fs1Fz1eMRpg+XtUfCAhLQeACDX8PeV+WUNAJCqTM4CY/yurXHdJ9HiftfQnYM2qVlWD1RupU2N8MjDTOM6c935Gvha+Jr42vgapWtPljs7rHAelTiCVvxBC58sW24YIeyXphNXaI9erKf1FxlBm/HYRHGfjFpINe65ahYK29NQXRO7jppqYXsGSAFQNBxG/ZHWns1/t0OmlIKwyzfGAi17ZlmEIIyPaXDPHRWCMAAAAACAQpW9IGzwNBVeIQgDAEgOf19JX9gAAMniGUklJSVph2BdOnSlIeVDaXqvOXR5vxvplqPvobsH1+bUow/TxdfC18TXxtfI18rXzNcutUlU3PZ8DwoiDDvuWqp1QhtbDS0MeSdYqjyzverX08XmOS7QH5to2bY6y+/7yscgzJlx5Xv0YFDglUYQpokWhKUyG4whCAMAAAAAKFTZC8I6jqa5GQrCuo2rRhAGAAWDv6+kL2wAgKj4cXzFxcXq8XylpaWeYCYZPct60bAuI9SjAy/tdzWtGVhD91duEYOkfMLXyNfK18zXPqzLCaotpDaKgu8Bh2F8T/L5UYmllxqPRdy4mEqF/dIzyzPbq27NVN8+Z6z2PhaxbvUZvn0yK09nhEmzrtQ6KahqxCAspdlgzK6j255KgneMSe0FAAAAAADNT/aCsCOG0gwOwhaMpW7S9shKaMRsfkfYXDqpvbQ9Gh6EkNYDAOQa/r6SvrABAKLgmUetWrVK+X1gHdqXqVlQgzsPoQk9pqgw6I5Bm8TAqBD8btCDqg24LbhNuG24jaS2S6Rt27bq3uTr7LBxq4wAatU4cb90lF6kz/baQitO9O+zsCZeB5atACkuXx+NaM+80sMt9S4vcSZWYwVhqc4GkzjBWEgYJrUXAAAAAAA0P9kLwmIB1nwa203aHlG7EXQBB2rz0wvUePBBWg8AkGv4+0r6wgYASIRnG3HQkuqjEDt16ES9Ovah4V1GqvBn/eCHxXCoEHFbcJtw23AbcVtJbZgI3xu+R/k4M2zhBjuwcW26NNPv5aqgxZu1c2xeTBW+fUbRii3aPg11tHqiuU+m5e87wjzB1Nlr6Y+BM7EaKQgLrUMKEswuk9oLAAAAAACanywGYYfQEcfMsN8Tdu5QKhK2R1Ex0X4s4gUjS8XtUfHAg7QeACDX8PeV9IUNABCGg5V03gfWoX0HGlp+HF3c51K6a9BmqqncQpuqnhJDoULEbcFtwm3DbcRtxW0mtWUi7nvD8i0My/pMrBNX0JZY+fW0/iIpaBtHq7fp9aij1ePNfTItf4MwN+Di92qpkCpw9lTjBGFqRlqCxxkmI9H5pPYCAAAAAIDmJ6tB2CEtutHY+TwrbCnNGFok7xOiaPA0quYg7ZJpNOgIeZ+oeNBBWg8AkGv4+0r6wgYACMKP2ks1BCtrX0Z9Ox5FU3qeS1cetZLuGvQQbaqqE8Mg4ECsTrURtxW3Gbcdt6HUtmHcMCyfHpM46+76WGjDttw0StwvVVPXaI9erF9PF5dK+w2ja2vjdWA1C6T9UqCFUskLD+TMEDEp21bTOKHMqKQASKfCogfXqkcSciAm7ZM4CLO3c32Dy0gQTKnZYOHHRz2P4pQXFt5J7QUAAAAAAM1PdoMw1nk0zV3CYVg1TasskfcRHNpNO25w8iGaiQccpPUAALmGv6/ML2sAgCBuCFZaWuoJWqLoXtaDju9yEl3Yp5pWHX031VQ+IYY/4MdtxW3GbcdtyG0ptXEYvmf5FIaZ7wirv3uWuF9qZtDap+Nl162ZKuxjM0Ol2uuGifslrUCDMDcwkmZiqRlaZn3EfUMCKrd8QXxf591gCWeDJXOexI9YlNoLAAAAAACan+wHYUWDaFq1PSuMzZ1cReVhs7talFDFqJlUrUKwpXTBSeXyfkniwQZpPQBAruHvK+kLGwDAxAFK69atkw7Bytp3VDOZTu02gZb0uw4BWBq47bgNuS3t2WEdxTYPwveO72FehGELjKCobi1NlfZLQelF66k+VvYWWnGivB8bddMWbz3Ed4mlYMq1VLOhRlBLde656mqF7Ww1LTxOKNMx9WrpGEttPFysqxW2s9ULaZhQZlRSAAQ2qb0AAAAAAKD5yW4QVjSIpiywA63q86fRTDcQW7KY5s+cQqOHVVHVwF5UVlJC5f2qaMSYGTR3sbvPfJpSmd57wXQ80CCtBwDINfx9JX1hAwDoUp0JxkFNRcd+NLXX+bR64L1iuAPJ47bkNuW2TSUMy4uZYf2WUa0bCCn1tP4C6T1eyaqgxZu1chMFW9PXaqEZq6VrQ4Kz9OXzO8IKm9ReAAAAAADQ/GQvCGtRTqMvdEKw6UOptIW17rAyGjRmBs13ZnuJliymuZOHU7cSo7w08SCDtB4AINfw95X0hQ0A4DryyCNTDsEGdBpIC/teQXcO2kwbq54UQx1IHrcltym3LbdxqmEY31vpnjcPRmDFtq2mM8R3eSXhxBW0JVZmPa2/KFG4NpXW1ml1sNRvXExV4r6ZgCAsX0ntBQAAAAAAzU+WgrAiGjS12g62LhxN5RyC6dtbHEGlPQfR8FETaMrkKbYxI6iqXzkVHWbsmyE8wPC9ua8CAOQ8/r6SvrABAJgbgrVr184TpCTSraw7ndD1JFra73q6a9BD9CBCsIzjNuW25TY+oevJqs2lexGE72lzD8NKL9AfYWirr1lMw9IIw6au0d49Vr+eZgn7mEZcV+upA9uyeip1EvZNX/MOwjp16iSGQIWO20VqLwAAAAAAaH6yEoSVj5prh2DV02hQkbxPY+PBBR5g/qfe4wEAchaCMAAIw4/Oa9WqVdIhWO+OFTSm++l0+VE30n2Vj9OmqjoxyIH0cdtyG3Nbc5tz20v3JAjfW77HzfcxiRW0cEN9LLyJ2VZDi8eGBwudRsyi1Q+vpYWe9d7ZXXVrpmrbwoyjFVu08zvqH15Ns44Nm1FWShUTF1PNxhU0Ttwuad5BWIcOHcQgqNBxu0jtBQAAAAAAzU/Gg7CSymlUrR5xOJdGd5b3aQo8sIAgDAByHYIwAAjCs4RSDcFO634mLe+/CgFYI+K25jbntk81DGu2M8NKz6DVQgilbNlE61cto8WXLnYso9V3baLaWNhV4wnCSi/SZ5htoRXJvOurciHV1LvHetXVbqK117l1YNfS2g2baIu7/7bVBROEtW7dWgyCCh23i9ReAAAAAADQ/GQ0CCsanJshGONBBQRhAJDrEIQBQJDi4mJq27atJzAJ06F9Byrv0IVO73EW3TBgrRjWQPZx2/M94HvB90S6VxK+13zPpb7QLFTOoLV/cMKhpOhBmPHOsc2LqUI/RwSlpyyjTU9rZUSVVBA2la7dUEM17OqoM9YimnKtXa7l2inC9gzh/iaFQYWK20NqJwAAAAAAaJ4yF4R1Hk1zlyylpUuradrgInmfJsQDCgjCACDXIQgDAElRURG1adPGE5QkwsHLmT2m081Hr6eNldvEkAayj9ue7wHfC74n0r0Kwu8La76PSLSUDqNZqzZR3bNC0BTk6bXxd4CduIK2xLbV0/qLwh5pGKLLOFq8YYv3PIk8vIyGSWXlMZ4BxY8DLNR3hvF18/VjJhgAAAAAQP7JTBBWNIimVXMItpTmjiqX92liPJiAIAwAch2CMAAwcRDCgUhpaaknJAnTu2MfOr3HFBXA1FRuEQMaaDx8D/he8D3heyPdMwnf82YfhrEuI2jGZatp/eYtVG/Oznq2nuq31dKmNdfSrDMHUCftuHGr6uL71a+PB2QpKu1zBs26bi1tqq2jevORifVWPdRjGxfTjFMqqFQ4HgAAAAAAAJqn9IOwFuU0+kI7BKuePIiKpH1yAA8mIAgDgFyHIAwAdPyOKJ6dkMx7wex3gk1Sj+R7ADPBcgbfC74nfG+SeWcY33vuA832fWEpm0prY+8Na6C6NRl+5CAAAAAAAAAUjPSCsBblNOL8ajsEm5q7IRjjgQQEYQCQ6xCEAYCLgw9+JGIyIVi3su40ptsEWt5/lRjGQNPje8P3iO+VdA8l3Ae4LxRSGFZ60Xqqj83Y2kIrTpT3AwAAAAAAAEgkrSCsfNRcFYItvXA0lbeQ98kVPIiAIAwAch2CMABw8ePwknkvWFn7jnR8l5Po8n430KaqOjGEgabH94bvEd8rvmfSvZRwX+AwTOor+aeCFm+OzwZr2LyYKsT9AAAAAAAAABJLc0ZYCfUfM5YGFQnbcgwPICAIA4BchyAMABiHYPw4PD0ICcOBSv9OA+myftfRfZWPiwEM5A6+R3yv+J4lE4Zxn2j27wuL4sQVtCU2G6ye1l9UKu8HAAAAAAAAEEH67whrJnjwAEEYAOQ6BGEAwFq1ahX5kYhl7cuoT8e+tKDv5XTXoIcwG6wZ4HvE94rvGd87vofSvTVxn+C+IfUZAAAAAAAAAJAhCAMAyCEIwgCAH3+XzCMRKzr2o7N6nkd3DtpMD1Y9KQYvkHv4XvE943vH91C6t5LCekQiAAAAAAAAQPoQhAEA5BAEYQDAj7+LOhusW1kPOrXbeLrl6HtoYyVCsOaG7xnfu9HWPexW1l28xybuG9xHpL4DAAAAAAAAAH4IwrLon3ufRv/Sawz9qPvx1KJ8ABWVdae2HTpRqVUXxn/ndbyN9+F9+RipLAAoDAjCAAobv/+pbdu2nuAjzJDyoXRRn0V016DfQzN2YZ9qquo8VLzHEu4jBfGuMAAAAAAAAIAMQBCWBRxm/VvPU+gXXSqpdYcu6iXo5daf3ct6UM+y3tSrYx+F/87reBvvw/vyMXwsAjGAwoQgDKBwHXnkkVRSUkKlpaWe0CNMxw6d1Eyi3tbvFdB8dbXuId9L6R5LuI9wX+E+I/UlAAAAAAAAAIhDEJZh/9prDP2k67FUXNadOnUoVy9AH9l1NM3ps5Cu77+W1g16mB6o3Kbw33kdb+N9eF8+ho/lMrgs6RwAhaTbkieo9p19tPcrii0HP9tHLz21mU47WT6mOUMQBlCYONDg9z5FfSQiAPcV7jMIwwAAAAAAAADCIQjLGJ4FNooOKR9EpU4Adlr3SXRt/1vp/sot4nshdLwP78vH8LFcBpfFZXLZ8jkB8tD1r9Hez16jOb2vpmte3kf07QF644WnaMGcBc4+C2j4NZtp4zsHiL7aQ7Wr3fX5AUEYQGHix9wlOxsMCps7KwyPSAQAAAAAAAAIhyAsQziw4nd9lXUopyGdj6UFFZfTvYMfE0OvMHwMH8tlcFlcph2GyecFyDtOEHb3CweI9u6ga+YI+zi6rX6Ndn97gLatmC1ub44QhAEUHp7RU1xcjBAMksZ9hvsOZoUBAAAAAAAABEMQlgH8CEOevcXB1fAuI+jKo1bSxsonxaArCj6Wy+CyuEwuO+3HJHK44DxWTl/eeFjYt/c9tO0ze/veF+4R13uWXU9p+wCkye2rX71Pt+shWGymmLbO0uqeXXSQ1xuPSZzDQZqwxPq85zNhnUs7tikhCAMoPO5sMD3gAIgKs8IAAAAAAAAAwiEIS9M/9z5Nvc+LH2XIs7g4wNpU9ZQYcCWDy+CyuEwum8/B55LqkMjtu5yxfmERg7BYQKCFAw+/r9aIC4IwyKRLnqed3zp9ixc3/AoIwv6p9xV093tEOx+/wlhv4D4cO/4peoMO0Lbr7W0qNBPLbnwIwgAKT6tWrfBuMEgZ9x2eFSb1LQAoXJMmTRLXAyQD/QgAAADyBYKwNP1bz1OouKw7lbXvSIM7/4bO6TWbzu11YUZwWVwml83n4HNJdQjjmRVjDvQ//L4YhMWCMzfg8syciYcHtqfoDQRh0BgCg7Dx1IpDrnfC+iHPZtT6Lu/v6bdaMKb6+/u0LfbZsdfHP0vez4DnM5aBzwKCMIDCgtlgkC68KwwAJAgwIBPQjwAAACBfIAhLA8/Q+kWXSt+ARLbwuZKbFcaD+84SebaLe0x8sD8+o8wbACRiHxfxkXNO2OZ9FCOAJiQIU9v2vkYzpG3MCL44vJIe+6mCYaMvukGX52e3Hp5ZZpmBIAygsPBMnrZt2/r+zQdIBvchzAoDAB0CDMgE9CMAAADIFwjC0vAvvcZQ6w5d6KijjqLf/e53tHnz5qzgsvkcrcu6qHNKdRHxIL2zyO8C84vNbomFBlqYluRsFwRhkFEn30PbrE6y94X7qZu5LTQI00IuZx33TbOv8bp4EKb127CfzW0ZgCAMoHAceeSRaiYPz+jRQw2AZLmzwrhPSX0NmrniBdT6zDuouI2wDSAAAgzIhMbuR1dVHCquT1WhlXfyySeL6wEAAABBWFp+1P146tixE02dOpUOHjzIqU9WFi6bz8Hn4nNKdZHoj2yLFoTZgYFnfzXQ7ywIwqCpzamleiEMC300IvctY9ZW4hlhEYMwFgucMxOIIQgDKBz8KLuos8G6d+9O/fr1o6OPPhoKCN9zvvdSnzBxX8LjEfNQ8RIqu4lowN1E/W9+hlohDIOIEIRBJjRuPzqUXpj3U7pR3JaKwiqvT58+dNlll6k/pe0AAACFDkFYGlqUD1CDE2vXrnUGwrO38Dn4XHxOqS6iZGeEuft7QoPkZoTZ4VfQYgQFTvgVtCAUK2ytTp4trnfDsN3b73TWXUF3v0e08/ErvPs5/KGXExJ7+rP/HWGRgzAXf34y8JhEBGEAhYFn7rRu3ZratWvnCTOCLFmyhJ577jn68MMPoYDwPed7L/UJE/cl7lOYFdbMtTmdWvY613EVtb/6SxWCuTgMax3bfi4diWAMAjRmgFHap4qGHTeMhv2mgkqF7dB8NWoQ1uNntP+af6dnegjbUlFg5Y0ePZpuueUW9ae0HQAAoNAhCEtDUVl39V/bNDQ0ONEN0ccff0yPPvqo+gXk6aefpgMHDtDf/vY3te6TTz6huro6WrlyJa1fv56+/PJL56jEC5+Dz1XUsYdYF5EeNCURYkkzZewl8YwXBGGQETdbfeMrq7/MEbaxOWto8kT778Mffp8OfrGDlp5s7KNw/5XebacFX9bPnmAs1SAsaH2SEIQBFAYOK3gGT6LHIpaVlVH//v2ptraWPv/8c+dfSCyFsvA953vPj8jmviD1ERf3Je5TCMKazsKaBvU7e0NDDS0Utid2LrW/Ph56RdH/+keppVgWHDH4GerttFPvOUvkffJYowQYXcbRspo6p987ttXQ4lNK5f2h2WnMIGzJhH8nuuZ7tH/Cr8XtySq08i6++GK644471J/SdgAAgEKHICwNbTt0UgMTf//739Vgxe7du9V/tcvPZZ4zZw7ddttt9P7779Ndd92l1l9yySU0dOhQmj9/Ps2YMUMFZN988436Ux/c+uKLL2jPnj3qT3fhc/C5+JxSXWR6iGUtRhjGg//+RyD6B/JVSBBbjO18XEDIhkcjQupm2/1u72u0wAm8JN1WW/3m2wO0bUXA7LGwcEqbMemZyWUeE/azXoYWrKUDQRhA/uOgoqioKNK7wbp27UqzZs2i119/nb777jvn+wZLoSx8z/nez5w5U/UFqY/ouE9x32qyMKy6xhkIX03jpO2acavswfO6VeNi61SQFOHYXJSZui+hslv8YVeoW56hYrGs9BXP2W+dYwe1FbblPCcE6zJB2FYgsh9gjKMVW6x+X1dDiyfaM8E6jZhB126stz7bW2jFeOmYaNzvB5P+feHjfP+E7mPVefU2o9yAz623DnW02nc9C6lGLycmPAiPB+ZeNdXy/nadpfML7VSz0LdPuhovCDuMti34ngqGaMHP6UJxn2QUVnmdOnWia665RgVh/Cf/LO0Xxu6bbv+N1r/9/dno/+NXU51nu4E/f84+4Z9dAACA9CEIS0OpVeaAAQPo66+/VoMVzzzzDI0fP56efPJJtY5Drv3799PZZ5+tZohVVlbSww8/TF999ZXa/o9//EM99mbZsmVUX1+vyuDlz3/+M61YsYJeeeUVZw2p/flcfE6pLsG0RxsKixuExcKu0FArYEEQBlmxgBZs30cHvz1Abzy1mSaf44ZdC2j4NZtp4ztWn/1qH9WuXqAd0/whCAPIfxxS8CPsEgVhHTp0oL59+9KmTZvoo48+4n9UsRTgwv8x1IMPPqj6AvcJqa+4uE9x32qyd4W5QZgleFCXxQfY8iMIs6/HHMRTg9RJXQ+CsEwR667Csf1UNlhbl8eyEWB0GruQVt+1ibY8XUe1f7D6d/0mWlxp7ldFizkM27yYKjzro0v+sxMPuEIH08evphrPdue7yDiXHTBp4ZPz3eb9XrOPDf+u81Pfc1EDq1iI4A/CfG3k7pvhMKzRgrCyX9AeDoWUH9C2MmGfZDSX8pb/v4yUN2LECLr11lvp9ttvV3/yz9J+gVQf10OsKP3b2sfT39zPYXgYbDPKV/1XDnwBAAAyBUFYGvQgjP+L3S1bttDpp59Ob7xhR0+87oknnlD/JTcPYHAQ9uabb6r1HIK99957KjgbNGgQjRs3jh544AH1OMWJEydSVVUVjRo1ip5//nm1b+pBmM07q8td3JDKDcsSzGhxwipzCXr/GIIwyIRuS56g2l0H6OC33J/s5eBn++iN7U/EHo+YTxCEAeQ/DinatGnjCTAk/F/zDhs2jP7yl7/Qt99qX4JYCmrhe899gPsC9wmpr+i4bzVtEFZHdTwQFjYYq+2XH/8FuD2gl3YQVryaOt8uhF2GPjfuoX7uz7e/Sq3xnjAfBGGZDjBK6Yzraqme+3ltDa2+bjWt31hLtaumCvtaFlif8fottP66hTRjRPIzU5L+7GghfNLfKc73UXwAXv48+4P6KEGBX7QgzC7bvSYxCKte6GsfO8CLEkJEl9F+1PJwOqvsMDpXsGD0D5yQybZn9K/F/dipLfOnvP0X/Ii+jFge/8cuRx99tBo/Ms2ePZvWrFmjHovIf/LP0n58PJej6hdjB1jePp9a/3YD2UTHSf/hS1IhMQAAQAoQhKXBfDQi/5J62mmnqV88du7cqQKxiy66SM0G27Vrlwq2li5dqh6X+NJLL6nHH3J4xr+krFu3jv7v//5P/RffGzdupHnz5tF9992n3ivGwVlqj0aMyH28m/54OABoEgjCAPJfcXFxwtlgjP8DmEWLFtG+ffvsf6exFOzCfYD7AvcJqa/ouG9xH5P6Xta5A8qrzIFlnTvgtlocbG6eMhCEFS+hspu9gZek79J7qaXxLrH+Nz9DrRCGeSAIy3CAMWUt1TXUU82lw9QjEP37dKIBxw2jAV2cn0+9lmqfrqf6p+0gZ8tNZwQcJ0tuQNz+Tqmplj+HCZkzUQIG8uUZWEHfc0GkwEGgl53MeXyhXvoyPSNswfAf0/7l8UApKcv/jXYMP4z65lF5+yf8kl64TN5mlsf/kcv06dPVeBM/AtF044030rHHHqv+lLbzcXy87z+WkfpYSv2bRQnQAvZR/TezQS4AAIAOQVgaisq6U58+fdQv97zwYxDvvvtuGjlypHoXGM8OGzNmjHrsIYdZ27Zto9GjR6tfTk488UT6+OOP6dNPP1UvQX/77bdVGbxwILZ161Y1Y8xd+Bx8rqKOPcS6pC7+HrGgmV0A0HgQhAHkN34sYqtWrTzBRZCTTjqJHn/8cTp48KD9DzWWgl24D3Bf4D4h9RUT97EmeU9YbBA2ZEA6ZB/pvxCPP2pJ4wyQxwam1YAdb9MH7YKP09kzKLR9fOe366nvo9fZdzxvr6lx6qMLG1A8l0qv9QZeEjsEO51KLtlP/Y1t/a9/1NrmL1sFQvz4ROedWe7+9ruzjEcxGo9ZDHo0or1eO87dJxY0xcvtPWdJ/NgJO4zjpFDqXuri2cf/nq/A8wccP+Duv1MX4ZGTnrqZEtbVfx6zvHTaPhMyGWDMurueGh5eRlXCNlvQ4HcpDbu0huo5RFtQYWwLlkwQFg+oQr53wvgG3+VyfHVKKSiIGITp8iwIY327/JL+ehk/ElAIf4Jc9iN61A1a86i8/RN+TUtO+AntmP5ftOPcH9L+q5xtIeXxYw9XrlwZC7euuOIK9R9cc8jF2/lP/pnXu6EZ7x/0uERfyMtSDcIiHGf/uykFXkHfIwAAAJmBICwNLcoHUPfu3Wnt2rXOMIX9+Bqe1cUh1kMPPaS2ffDBB85WUsHXO++8o0KzZBYuh8/F55TqAgD5AUEYQH4rKiqikpIST2gh6dy5s3rH6O7du/FYRCyqD3Bf4D7BfUPqMzruY9zXpD6YVdogbNBAV3ww2T/Y7A/C7H186zxBGD9iURrAMwfS/WX56ziOVtdoZanrMQatQ8o2B7fFwUWRFITtp46j7qXyW+2fw0IwFhqE8T5a0NL2Cj5mP/W+RQ+ZnGDninuNY71BmHusHgq1vcIbhPW+xR9wSce5dTPrYIZn8e1ueJS4TlLdo84I89eL1+2IH+eEZJ56umGXr/2sdSm0fSZkMsDgz2Z4eGN/BuQB7Apa9rD1mdmgf2bCCCF20MC6Z9Bd/hyGcj7PZr3t7wbtnFLA5Hw/eHi+FyTO95BHghkwEYIFl/87NH3ZCMKUVofStov+1RcMSb686Od0VSuhDF0zLY+DMLW9XQt6YcE/RS6P3xt61VVXqZDruuuuo4EDB3q288+8nrfzfry/vl0nfr7T6N9RvivkfVIIigEAAJKAICwNP+p+PHXs2ImmTp0q/tfa/G4vngmW7sJl8zn4XHxOqS4AkB8QhAHkN35kXdu2bT2hhaR///7qv+bNxO8RWPJj4b7AfYL7htRndNzHmuTxiJ7BYmGwyzPo7N9uDuImGtT1DVY71HHSgJ0x6B24nxIyIOcbFJcH9qIHYRbfoxG/pC4TTqcjutxBnS5OEIKFPBrRDmOM8EcIbeL7xsMjX5ikAqCQIMkp1zfTKiSAUsGQGxQlCqrU+Y1wS3ECsgQhXsLymXMNegjmZZ9LnE1mtE86bZ8JGQ3CNtifleDHG9qfgaCZHOGftcTU8b7yzc9o2AC7xjPAHxxC2d8v7n4Rgijn+yW5IMoN/ULKjxiEBX0fpitrQZjjqlN/oN6RZQZEtn+lPaceSkOF44I0t/LsIKyF83jE5Mpr3bo1XXjhheo/mr7ppptiYRf/yT/zet7O+5nHxkUMn4L6t7s+6udEff6CP3fpflcAAACEQRCWhn/pNYZad+ii3t31u9/9jjZv3pwVXDafo3VZF3VOqS4AkB8QhAHkNx6MiPJ+sFNPPZXuv/9+JwLBgsVeuE9w35D6jI77WPjAV5YYAZEa0NIGzbzBUKIgLPGgtj3waw6ohQ3IO4POziCbO9AtniN08Nmsm1xX7/VGULyaOt9uh1s2JwwLCcEG3P4qtQ55P5gKWHyP3RNmXlnMMMb82RNaSQJCJLkODk945D5uUA6E1PkDZk0lqrsSIQgTj9OFluFtV/m6o7V9JmQywCi9aD3V8+dhYqm4PfRzVzqL1tdbn481U/3bkmB+n5g/R/nO8LOP8c0M1b4nPPslGqB3QoGgQFAmnU+TMAhzw7RkzxtNtoOwI444NPgdWZf9lG4UjwnTvMr78qwWNPSIw2nTBf8vpfL49Rn8TrBly5ZRWVkZHXfccepP/pnX83bpuDi7/0TqOwn7t9sXg/troqBL/buZ6HMGAACQIgRhafjn3qfRL7pU+gYfsoXPxeeU6gIA+QFBGED+4nc2RXksIpszZw698sorTvyBBYu9cJ/gviH1GRP3tUZ/T5g5U8ozaGYOlPsHrT0D2xEGlMWgKfQ4YcBZnx2il2Vei4dZd/+1sKSDMPO9UVGEBVOWdMIY78/+WVc+ASFRaIDmm2XmbQPfYxGzHIQlDPtCZ8XlbxB2xBFV1uez3vpM1FPtmsU049RhNMDz/iLz88060Yjpy6iGP3P1NbSwUt+WPDu4dgIr8fMpfw4T8x7nOY8u9DvBlVod/KGeJjQIs88XNsMmXVkPwvr9NGTG1ffphX7CMWGaXXn/j76c9Qu68eQfplTeaaedRrfffjtdcMEF6p1gPAuM/+SfeT1vl46LSyIIi9S/hX9nXVH/XUcQBgAAWYIgLE3/1vMUKi7rTmXty2hw5yF0Tq/ZdG6vCzOCy+IyuWw+B59LqgMA5A8EYQD5i9/Z1KZNG09YIenYsSMtX76c9u7d68QfWLDYC/cJ7hvcR6S+o+O+1rJlS7EvZo1voDg+IOYfXPYPqHkHg+3tSQdhoceFDNCZA8oRBp/jdfdfC5PrFyaXg7DwGVlKQNAk18EREizZ54/Xs9FmhIW1aYHOCLNV0dQra2hLPX9O7M9Y6cTVtKXO+sxUOp+7S0fRss11VHs1fxacz8Xm1TQjzRCMxb9DnM+xVXawRIGVzvu9EBxKOdcYGhjI3wWJpBSEOaFCct8xyct2ELZkwr97QqH9i/5N+1l7h1ZEzba85fb7wZIt7+KLL1ZPEOIAjP9cuXKl52feLh0XZ/f/aH02Wv8O7M/qd4Tw0FYdiyAMAACyBEFYmniG1k+6HkulHTrTkM5D6cqjVtKmqqdoc9Uf08JlcFlcJpfN58BsMID8hyAMIH9FfT/YgAED6M4771TvGsWCRV+4T3Df4D4i9R1dk7wnTJox4ayr8w20+QfUvINnYaGVTQ6aQo5L9F+jewacQwb8fNcp75t8EHYutb9eC7ki6H/9o9RSLMuWThiT6GefoJAoJOxKNANLD7+Cz++fLSbuGyEIC5/xxeS2U4xjVR3yKggTlJ5B19bWU8PT9VRvfQbq662/19fQ4mODHqGYqsTfB6mGUOZx8cDN2E/6fjNF2ccnQb0DgrDQ8CyDstuPfk3PLHJCoeX/RjuGH0Z9rfULhv+Y9i931i/6GS3xHReksMrr3r07XX/99XTHHXfQmjVraPr06eqxyPwn/8zreTvvJx3v4r4U6XMTqX8Hf1ajhFyR6wIAAJACBGEZ8K+9xtAh5YOorEM5De8yQgVYGyufFAOuKPhYLoPL4jK5bD6HdG4AyC8IwgDyFw9OtGvXzhNWSMaNG0ePPfaYE31gweJduG9wH5H6jo77WqtWrcS+mDXiIJkzKOZb7x/89Q3sujMePANn1nHOz4FBU9BxxrqFNd7Bbt8AuLoeY1DOKds7UBcwkJ3KoHib06llr3MdV1H7q78kT/B18zPUOrb9XDoy5P1gLJ0wxh/OuDPWvIFN2yucn0OCJhVoGdvs8rV11vFdPHUy6xl0fv86OViSrttep4docl13xH9WgZdRjrp277p02j4TGiUIY24Yxp+vjIRg8c+4S303JPwsCZ9D9RmMf6YX1gR8P3m+R/zfFbF12n7jVtV4y5K+d8wQy/q5xvM94X4/hsySMctQ7PqEz07LjKz2o84/pz0c/lz2I3rU86jNI6hvl1/SXy/7f0TX/Cdt6+zdFqjAyhs5ciTddtttahbYiBEjPNv4Z17P23k/fZtJ+rc0Sv/m48w+aH9Wpf4sfD59Gq9fAwBAYUIQliH/1nMUtSgfoIKrIZ2PpQUVl9O9gx8Tg64wfAwfy2VwWVwmly2dEwDyD4IwgPzF72wqLS31hBWS3/72t/Tiiy86sQcWLN7lhRdeUH1E6js67mvc56S+mDUBwY8aZDMGtqVBMV8Qpu2nP/bMHSQLDMIU/3HmAJw9YKcTBu/cwT+Nf5AuaIDPHeRmiQbxAxQvobKbOJixQ7BWCYIvUzphTFA4YwdFGjdESjDjyi5PP9Yo2wmT9H3MOjLf+YUZZUF11+tgl+0Pwsz9xHMIdY2/z8ymyiiEIIyVjqJZly6kqRmZCeb/7AZ/znUB3yn6d48Tbnv4vpuY/tm1mZ9vOzj37mN+N/i+o4TvE/n8mpAgzFOOLlGZSchmPzp39A/oy4t+Tle1krcf0epQ2nbR92nP6MPk7YZCK2/WrFl05ZVXUt++fcXtvJ63837S9hihj0Xp32J/DvqsOvuGhlxGcA0AAJBpCMIy5jQVWPHsrdIO5dSnY186rfskurb/rXR/5RYx9NLxPrwvH8PHchlclh2C4ZGIAIUCQRhA/oryfjC2YsUK2rVrlxN7YMHiXbhvcB+R+o6J+9yRRx4p9kdoRooXUOsz76DiJEMwKGyNGoTlJDvMCh14zzIO4vwBefOSvX50OK2uOpSGitu8rqpqQWcJ670Kq7wOHTrQ2LFj1dMGpO0u3s778f7Sdpv9WWnqvuoLrgEAADIss0HYYWVUdfpMmr94KS1dalk8n2aeXkVlhwn7NjIeDMhuEGbjRxjy+7yKy7pTJycQG9l1NM3ps5Cu77+W1g16mB6o3Kbw33kdb+N9eF8+ho/lMvA4RIDCgyAMID9xGBHl/WDs/vvvp/379zuxR2YXfscUl71jxw569tln6cknn6Rt27YpzzzzDL3yyiv0/vvv09dff03fffedc1T0hY/7+OOP6aOPPvLYu3dvwneeffPNN+rY1157jbZv3x6rG//JP/P6Dz/8UJ2jkBe+f9xHpL5j4j7XsmVLsU8CQH4r+CCMZ6BEmkmWLTxrq/nPbkGgWiCaejaWOPMRAAAgszIXhBUNoikLnADMtGAKDSoSjmlEPBjQGEEY+2c1O+wU+kWXSmrdoQuVte9I5daf3ct6UM+y3tSrYx+F/87reBvvw/vyMXwslyGVDY3tHtr2GdHeF+6xf77+NdpLB2jb9c529TPRGw+7++czoy2iePh9q3Xep9ulbU3odp5o8dlrNEfY1tQQhAHkp6KiooRBGP/Xuj179lThD4dCmVo4gNq9e7cKutavX09XX301zZs3j84991yaOnUqTZkyReGXq8+ZM4cWL16s3ivx4IMP0ptvvkmffWZ9+UdYeL/nn3+errjiCuXyyy9XrrvuOhXcfPHFF86e8eXbb79VM5w47OKXuvNxF110karLWWedperFf/LPvJ5/r7z11lvp0Ucfpb/+9a/05ZdfOiUVzsJ9g/sI9xXuM1JfcnGf474n9UkAyG8IMCAT0I8Kh/244CYIw5zHJjb32ZMAAJD7MhSEHUGDpi5WgxPV04fHZ4AdVkbDp1er9YunDqIjfMc1Hh4MaKwgzMVh1r/0GkM/6n68etdXUVl3atuhE5VadWH8d17H23gf3jd7AdhT9IYzgBJfggIK3lcLexxzXjjgHBdfkgpFMsUMo7IqlSBMaOtdT2nbmysEYY0BQRhAfmrVqhW1a9fOE1KYOnXqRMOGDaPnnntO/dOR7sIB2L59++ill15SIRMHXwMHDqSOHTuK53dxuFJeXk4nnHACrV27lnbu3OmUGL7wLDMO2czyBg0apAKuTz/91NnTnjn297//nerr61XoNnnyZBowYIDvWBPXrVevXjR+/Hj6/e9/r2abFeLCfYT7CvcZqZ1c3Oe470l9EgDyGwIMyAT0IwAAAMgXmQnCWlTRNJ75dckk6t/C3NafJl3CM8OmUZW5rRHxYEBjB2G5wg6w/MHR7bvkMEnt7wlunGDHDHM4BGqKgCfFIExdV9LhR4IgzBQUjCEIk7eDD4IwgPzE72hIFIRx+HTmmWeqxxOmu/BMK34c4datW1XIxLOHpHMmwjPEogRz/BjFxx57jE477TTP8RxcnXrqqWo2mjt7i2c08eMXecYZh21du3b1HBNFjx491Avgo4Z0+bZwH+HBSe4zUvu4uM8len8IAOQnBBiQCehHAAAAkC8yE4R1HE1zOQibViVur5rGQdhcGt3Rv62x8GBAQQZhSQcRdtgRD3JSCD+yLYeDMH+ImE8QhDUGBGEA+amkpCRhENatWzf67W9/S2+99ZYKO9JZPvjgAzULbMiQIdSlS5eEj9ALEjUI48ce3nTTTeoa9OP5Zy7jwIEDsXeO/e///q96XGLfvn3VjKZU6lboQRj3Ee4rZnubuM9x35P6JAAAAAAAAEChyEwQVjKCLuAgbO5oKvNtL6PRczkIu4BGlJjbHC2OoNKeg6hqSBVV9SunIvfRihnEgwGFF4SlGFzoYVGKQQYHQlHPm8y+ihlGxX72PpIwXqbdDp5Fv0ZnFlds8QRZCYIw42cVhEVoL3u/+OKZQZbwehzq3miLEcCpx//FFq3OURntsveFp8T+FHqeWP8Juxbe5q+fKte4Jm+7Wcc8bNwPxXsuLsMsK+hnb/lNE+AhCAPIT23atKHS0lJPSGHicIcDor/85S/O91BqC787684776Rjjz024aPzEokahL3wwgs0a9YsX6h14okn0l133RULwTjAueaaa6iqqirlcI4VehDGfYT7CreD1D4u7nPc96Q+CQAAAAAAAFAoMvSOsFIaMYfDrsU0bUiJZ1vJkGm0mEOyOSOoVFvvKuo9mmYu4GM1S+bSlMpS377p4MGAggvCzNAmAg4E9JBCCiOiSCbcSmZfRQyjeNGCCxXAeK9dhRzmjDBfGzmhWeyakwvC4qGb99w6Xz2c+sfCsCjX4zvvU57HL/rum9Aeocw6WVSZ1hLaP8zzqJ950a7FKTteTrQgzA6p9HDKDbyMdrDW6HW0j7OWkPbxX5vZDxoPgjCA/NS2bduEQRi/+4pnce3evdv+Ukph4fdwPfDAAzRmzBjxHKysrIwGDx5M48aNoxkzZtCFF16o8N95XWVlZSxAixKEcci1Zs0aOv744z3n4aCLj+fH+LnvK1u1apVvPx2f95hjjqHTTz+dzjvvPFUvLuOcc85Rj1jk94jxO84KPQjjPsJ9hfuM1I4u7nPc96Q+CQAAAAAAAFAoMhSEWTqPprlL7CBr/sxpNGXyFJo2c34s2BrdOfyY6tn2MVPOnesEYtU0bXCR/5gU8WBAYQZhScxqEfbngEAPFaJKJtxKZl/FDIGE0MYXYFl8AZRFvD4V3rjtkGwQZouFL75tEUKfKNfjqaNBHW9u87dHGDMoskltkeA8AQGc915ECcLsgMvbJhaj/aV7zMzrEX82jwtr4yxCEAaQn/gRdYmCsD59+qj3Zn300UfW909qy/PPP08zZ85UYZdZPodM/fr1UyHTVVddpc5VX19Pf/7zn+nVV19Vf+d1PGPrrLPOUoHUggULQoMwDrg++eQTmj17NnXv3t1zPr4eDr4+//xz9X6wuro6FWZJdeN3XXE4N3XqVFqxYgU98sgj6rxcNw7S+B1j9913n/odceLEiSpM43pGDcI+/vhjevPNN1X7uHbs2KHCuUwufJ7XX3/dd579+/c7e2Rm+fvf/67uFbex2ZY67nPc96Q+CQAAAAAAAFAoMheEWcTZXQtm0ujeUqB1BA2dbu8zc6R39ldRv0k0n4+tnkC9tPXp4MEAzAgLp0IEI/yQAxGZ2jdokcoNWhKdz7wu8Tr9wY8/JLH3kZf0gjCXG4h5jw9Y3OuOdD3xuuvXqMRmYfkX374iu2xf6GTWIcp5gsIkz/qo4aBQjtFWfIx0jWY/TvSzgiAMADIo0fvBGL8za9u2bSmHJt98842aJTVw4EBf2Rw+HX300WqGFQdCBw8edI7yL19//bV6x9gtt9xCt912G7388svOFv/CAdcf//hHOuWUU3zn5MBqy5YtasYYBzcc0FVUVPj24xleQ4cOVXV///336dtvv3VK9y9cbw7t+H1kPCPqvffec7aELxzCzZs3j4477riYJUuWqEc6ZnLhtuAZbPp5LrvsstA2TGXhAG/r1q2qz5jtaUIQBgAAAAAAAIUuo0GY64hjZqiAa8YxR4jbbYNomgrKxlI337YjaOi5HJJV09ge5rbU8EBAwQVhQbNoRHIYETTDJhE+Llrokty+ihkURQqOgoOw8PYxyol0boMeqKj9E4QrEa/HZt9jXmLb+Hwp3LO4oHYx6hDlPEFhkmc9gjAdgjCA/JRoNhjj2Vo8g+jAAfs/okhm4RCM3791xhlnqGDJLLt///60aNEi2rNnjwq63Hd2SQtv4zDqs88+U6FcWGjG2zlQksK3G2+8Uc3Y4hlhzz77rNpHmg02ZMgQFbjxTLiwEIwXrhvX360bX3eUpba2liZNmqRmxbnOPfdcevrpp509MrM8+uij6vGS+nnOP/98+u///m9nj8ws3Ed4xhz3GbM9Tdz3pD4JAAAAAAAAUCiyEoQdMniaCsKmDRa2xThB2NzRVCZsHzTVni0WXkZ0PBBQeEGYM8AfJRQJCjVU0BA1TItrHkFYQADikYEgzLNPhHAy4vXoPNcWpU6h7HP528Wue2BbSALCJG+7S21i1EGdS2g3VX68DnJ/91+Ped/FfoAgDAAySA8mghx11FHqMYBhwVPQwsHIPffcQ8OHD/eVy+/q4kcXvvjii+pRhsksHDwFhWYcSL3zzjs0cuRI9WhD93wcdvG7vB5//HH64osv1KytlStXUs+ePT31Ylw3fkwjz1JLpW5RF37UIj8SUj83v3fsT3/6k7NHZhYO3Pjxj/p5+N1r/NjJTC7cR3iWGfcZ/VxBpD4JAAAAAAAAUCiaMAiroEmXcNg1k4YXGdtadKOx83nbBTSixNiWIh4EKMQgLBYCiGGEGyDY+wSGMyoQEEIYDifM8MCRi0GYGGw41+a5dqu8N2LHGeUkOPecF9436uEPZ9TPRj08x0W5Hqveep29IZ9zz32hX/ycav+Ae6cI7WLXW2/TxOdxy/HsE1S2to+qHy9mWOVpN3c2nHk/vPc9sKyQnxVVT6PNQn42ryFVCMIA8pMeSgThWVv/+7//S1999ZX1hZLcwo/Ku/jii8VgpLKyUj1GkEOpTC78uMMHHnjA97jDrl27qllQ/K4sXvhRhmeffTZ16dLFsx/PXOP3kPEj/jJdN3PJtyCM+wiHh9xn9HMFkfokAAAAAAAAQKFowiDsECobNVftt/TCsVThBl6HldHw6dX2+nOHUpFxTKp4EKAwgzBbLAzQF3fgX4UHesAgcUMHfTHDmkaSIIyyCUGYG9zwIgQz8UVvC6OcBOcObWeNHepoi75PlOsx6+wLYLRrdRYzwAoMPl3GOd542KiDEnYetwyrPX1luce7vP2Ly5DCKW+7WeVKbaXWxReprEQ/K27dnZ8RhAFAOvRQIgiHGu+++27kx/3pC4dS/J4uM2xi06ZNU++uyuTCs7Fee+01FXhx8OWei2d48XurOCDjOvHCjwXkxx+aj2zs1q0bXXTRRSr8y/aSb0EY9xHuKwjCAAAAAAAAABJr0iDskBblNOJ8J/QyLZhCg8yZYmngQYBCDsLC8AC+N9yA/MahUzzAadbE0NBPDLpyFIIwgPykhxJBUg3C+JGC//d//6fewcVBlFnulVdemfGwiWckbdmyhfr06eN571fnzp3puOOOo7/85S/qfV8cmD355JPqXVl6nVivXr1o7dq19MEHHzilZm9BECb3SwAAAAAAAIBC0LRBmHIolQ2ZQBcscAKwS+bTzNOrqOwwad/U8SAAgjBBxCAB8gjf82YSCiWiZmUlnIUlvYMsdyEIA8hPeigRJNUg7Msvv1SPIQx6X9Rtt92W8bCJ63nDDTd4QjDGYRz/PsePauSF32XFIZS+j4tDtIcffpg+/vhjtW82FwRhcr8EAAAAAAAAKAQ5EIQdQod2G0tzrf1Pmn81/XTMzfT/Zmyj7130isJ///6pN9OP+k4Qj42KBwEQhAE0X/F32jmcxy16Ai5fyOc8ujEDjyxsLAjCAPKTHkoESTUI47Dp5ZdfDgzC7rrrrthjCjO18GywM844w3euUaNG0dNPP63COV4+++wz2rhxo28/xo9Q3LZtG+3fv1/tm87CZWzfvp3mzJmjAi7TSSed5HuXGbcXh1bS/suWLVOPfvz666+dM9gLtzVf+yWXXCIed/LJJ1Pv3r095+H7OmbMGHF/fjTkG2+8ocpNZkEQBgAAAAAAABBdIwVhh1JRSQmVmMp60fDTL6DjF91FP/7tc2oAOAyHYj/qO957roh4EIDLkAaeASD3Se9fS/SuMbU0oxCM8fcUBi0B8o8eSgThUIMfYciPHUxm+eKLL0KDsDvuuIM+/PBDZ+/0l08//ZRuueUW6tevn+c8PXv2pAsvvFDN8OLHNfLCQdiDDz7o2c/FwRSHSu7ssXQWDvr4vWQ8y0w6V7I40OPZYm6g5y6ff/45/e53v6Njjz1WPC5ZHAZygMftlMzCfeTNN99EEAYAAAAAAAAQQXaDsMoSqhg1g+Yv0d79Zei98PeesCuKfz9+iXzeEDwIwMdKA88AALmCv6cwaAmQf/RQIggHWa+88krSs4M4FOFZRUFB2E033aTe2ZWp5dVXX1WBl3meE044Qb3zS184SOLHEkrvLuPQ6v7776c9e/Y4e6e+FFoQlmgWoEnqkwAAAAAAAACFIqtB2FItAFu8oJqqPeZT55nrPQFXMpINw3gQgI+TBp4BAHIFf09h0BIg/5SWlnqCCQnPsHr++efpwAH/DNiwhWdf/d///Z96P5cUOC1cuFCFJplYvvvuO/WoRX7UoH4OPu/s2bPppZdecva0F97/ySefpM6dO/vq1qNHD7rmmmto165dzt6pL4UWhHEfee6553yz8iTc96Q+CQAAAAAAAFAoshuEsTljqaLEvw8/4lAPtlKRzGMSeSCAj5EGngvZ8NVP0e2330ythG0AYFm3g/Z+8TUdVA5Q/Tphnwzi7yn+vpK+sAGg+WrXrp0nnJCk884sDoL4/VRdunTxlTt69Gg1KyvdhUMtnonE7+Hq1q2b5xwcaq1cuVI9ptFc/vu//5uqqqqoY8eOnmPKy8tpwoQJ9D//8z/OnqkvhRaE8eMkt27dqo6XytVx35P6JAAAAAAAAEChyHwQdlgJ9RpzgR2CLZ5BVUXCPhZ+35ceaqWCy5DKlvBAAB8jDTwXquEPv0/2w5e+pjceRRgGYJtNcx54imZMtH+e8ewBos920cZHn6eXPiPa+8I9zn4LaMaKOzP+ueHvKf6+kr6wAaD54jAi0awwDnH4fVofffSR+tc5mYWDkYsvvlh8VB6/u+uqq66iDz74wNk7tYUfwcihzZgxY6isrMxzDg60Hn/8cRWWmQs/SnHatGm+kI7L6N27N91zzz1pPx6RA6v33nuPnnjiCaqtrfW57LLL6LjjjvOcn4PDa6+9Vtz/mWeeUXVy33XmLt988w29++67VFdXJx7Hv/8ec8wxnvOccsopdP3114v78zvS+H5zucksHPxxX0kU/HGfQxCWHxbWNFDDttU0zvl53Ko6amiooYXaPgWtusZqjzpaPV7YFmgh1TQ0UE21tA0al30v6laNE7Y1nkx9rlQ52ucVAAAAAJpeRoOw0qHTqNp8H9iSuTRhQIlnvx/1neAJtDzW7KGtnziDKP/4jt59fTe1lPZzcFl62UF4MID3lwaeC8Nsqpx3M512iW3GfTtor93KzsJh2J2x7afNuwLBGOSOk6+gk92+KZmzQD4uabNpxtY9dkD81R7atu5quv2dePg154UDRB88T8MX1lK9Gqf+mnZuzWwYxt9T/H0lfWEDQPPVtm3bhEFYr1696I477qDdu3fzF0xSCz8qb8OGDb6wx8WzwtatW0d79+71hTvS8u2336pg6X//939V6MLLp59+SldeeSUNHjzYVz4HSm+//bbaz1z4sY2rV69WgZx5HJs8eTI9/PDDkWfC8awzfufZm2++GZtJxQEcXxeHdRyKmTZt2kTjx4/3nPfss89WM/Ck/b/++uvAduK2CTrPQw89pNpaP88555xDf/zjH8X9uZwo98NcuI9wX+E+o5/LxH2O+57UJ7NOBRMNPkGhgxn0uOyBabOcZAOPTGqaAfuEQdj41VRn1ctsX7H9ahZ69skL+RqEBdzX/IMgLDfkxn0AAAAAyIaMBWFFg6dRtQq+qumC00dQ1ZAqGnH6BU4wVk1TBhwR2/f7p97sCbM8HtpPW1/dTQOvepXK6w7SQfqK1q8R9nNwWXo9gvBgAO8vDTwXhHW7nNlfUZev6aUsPwIOIJKT76HaD792+mXQcoBeuu9q+fjI4iHY7pefp23uOb8lemOzs8/m9+111rL3ne208ineP7NhGH9P8feV9IUNAM1XmzZtEgZhPXr0oOuuu06FPMkuPKPorbfeorPOOks9ctAsm2djjR07Vs0i2rFjhwqdONDRFw5k+NF/HFzxu8o4vOKw5c9//rMqf+fOneqRgV27do2Vy7O6+D1Vf/jDH8THIvLCZfL7rIYOHUqdOnXy1Itx3WbMmKFmSP31r39VoZ4ZDvHPHMRxHZ566im65ZZb6O6776b3349/L4ct/GjI008/3XNeDqj48YeZXPgaTj31VM95+Nrq6+udPTKzcB/hvsJ9Rj+Xifsc9z2pT2aPPZAqDSbz4LA8oC8EEk4AIA0mL6xppkGYuqbU6p58EDaOVm8T2o/3QxDmEPpdrkEQ1qgQhOXGfQAAAADIhswEYS3606RL7MBr2uAiz7ZYQDZ/LHVz1kV+LOJV++hd+pa2PiRsc0R9PCIPBvD+0sBzQXg42kCRvrzxsFCOUdbOx68Q9plNK99ydvjsNZrD6857it74iujgO09RpW//3DB83Wu00x3Ds+op7QON4R7a5kxXVDOxVH97n24X97WpmVq70r1ns+mat76O91l+9OGj79PevTvomvOcfc6rpW273lczxdTPc7bTTh5H3usekz7+nuLvK+kLGwCar5KSkoTvCeP3bv32t79VgVYqC8+K4kfw8fu4pPL5HV0cWvFjAjlM4jCFH8v38ccfqz85VHr22Wdp1apVKjTr3Lmzeh8Yh1iffPKJCpMqKio8Zboh1muvvebUQl740Y0XXXSR+OhGxgHZ8OHD6YYbbiCescJhnFs3npHGP/PjCPkRjyeeeKIKgHh2GgdjUZZ8C8K4j3BfMd/VZuI+x31P6pPZ4YQvyQYtKsTQB59zeTA2R4MwU0rBUDOWr0FYwUAQBgAAAADZlZkgrPNoms9h19zRVObbXkoj5nBINpdOam+v+95Fr3jCLNlbNPudb4kOfk6zxe0Oqyzv+WQ8GMD7SwPPBSFLQRg/Js4XbJ38FL3hbI6FCpc8rwKD3A3CauklDjS+2kf1W7fTtsdrrXX308YPDtDBjzIXcoCM31e394uv6eAbT1g/2/1n59ab6eRzZjdiEGY52eoHXxHt/tMaebvHFXT7OzxrbB/VLpG2p4a/p/j7yvyyBoDmrXXr1gmDMJ7JdeaZZ9Irr7xifbektrz++uvqXWEdOnQQz8EzuLp37059+/ZV77Lix/hNnDhRzfT6zW9+o4IqfoQhh2BchhuE8SMSOcgygxd+R9X999+f8B1f/KjBl19+mU477TTf+8VcHIbxuTms41CMwzh+9xi/y4sfx8jrOQDj/Qo9COM+MmnSJHH2n477HPc9qU9mQ2qDyHZ4pg+ABz0mMTEeTE8mDEl2f9Y8grBMDeg3GwjCmjkEYQAAAACQXZkJwvpNosUchE2rErdXTbODsNEd7Z8TB2G7aPnOb/g5P/RI7VvCdg2CsEiGP7XPGToJWb7aR7vtV22oZfdTN8uPe3OCsL2fHbD+1x8CVD7Og2FWWfwOpdjsmlznhHeeMMVZ12yuofm6fRfRwV0v0913cABlt3ssiG3EIKzbnJvpmle5X++hu91ZYL1n02m3b6dtL79Gd9+ufSbu2GE/RvHZe6jyZHff9PH3FH9fSV/YANB8tWrVKmEQxgHPsGHDVPCU6sKPFXz88cfV+6+kc+h4hhg/5pBDJf6Tfzb34SDs6aefVu/SGjRokGcfDmFOOOEENTuJ33UVtvBsNX5E4r333usLiiTcFhy6cWjHs87MYK/QgzDuI9xXuJ30c5m4z3Hfk/pk5vkDrUh84VA64USywVay+zP/gH180Nve5n8XlzNTTt9m8bSV8wi82HZjED3pRyM6P0e7H0a9jSAg8fW5/Ndpnl9dh7Y99fusl2PVNyAIs9spvq+3PnY5XIco+/nbMmAGpHAvF5r3S4lwHeZ9Dayz3I/917VQrnMiql7xcpjn3ql62nXw3mPzmm3+fhDUxn7mNfnO4atrwGc8nfvk2e6n6ih9ZsxjY+0W/+zobRB6rb6+YbPbNug89s++cmPfLf77oMrj/mK0l3ivIrcpAAAAQOPLTBBWMoIu4CDskmk06Ahj2xGDaBo/NnGJta2FvS780Yi76La/fUf0zZe0/p4EIZgFj0ZMjGfbJHw/2Lf7aNuK2dTqHv1dYl/TG48KYZgThL3xwmvET7DbvV2fPbOGajkAe28H1XOoFguR/EFTq6u200sfcujgLJ/toGt4m1P+zhdedh5V6IQgE++ku985QAfdV5p8dYDeeOp+6uaU908T76eNu7Ttn71Pd1/ibgs51jmfvrzxmn1t+qIe0+eeCzKKg7B4+zZBEHbNy7Tb7Rvffk17P4w/DnHOs3YfPfiF/c4wrqf6TJxXS/VW/433qT1Ue41WZor4e4q/r6QvbABovoqKiqht27aekMLEYQ/PiOLQid/Jlery4Ycf0sMPP0xTpkxRAVfQ7LAoOAjjGV8333yzbybX0UcfTZdccol67GHU5b333qM777yTxowZIwZvUSUbhPE7zKZNm0a9evWKueCCCzIeUHEIyTO19PNceOGF6p1rmVq4b3Af4b6S6N5yn+O+J/XJjAsYlE0kNsjqrktpZo+LB3GTOTbZ/Zl/oDg+qOwfpPYMFhuD0THOwH287ZxB8djgtNNO2s/2OcMHxcV6mYR6mgPp0a5PCIWsfWrM7do1+K87AqG+8eDD27a+QMB3rHMvt9WJ5fn20/dRhGsWrily/5Cuw9kvXp5dF2/9hGsV18XDluSCMD7OW7Z9Tf56eq9duOfiOvmaJPY1mfc5Xjdpu9v+nn6Wxn2S2tqkyuJ+Jba/Wb61n7WvXmdxX4v3+px9PPfSPU64NqfN7es06lXj3g9/X7fPaUn02Y3apgAAAABNJDNB2CFH0NDpPOvLMmcsVbQ9VK0/tG0FjVWPRVxK1RMrYvt//9SbPWGWR91BOkjf0AN3CNsEXFa8HsF4MID3lwae89o6e9ZK6OKGYCtept2+/6D7a3ppnVGmG4Q97IReX+ygBe62JVYZats9tC0sCJtj/czn+vYAvfHC83T3o89T/Qc77LDDDaa+3UMbr1ngnNd9b9TXtPNlZ/8P7WDCfozdFXT3e/zTAXrp0c004+anrPL20LbrIxy7ZLO1boeqN320w/r7dlq6/h5a6a774n2qtdatXCG9Dw0yocmDsOs5+LT627wrjODXfmTmzq32O8GGb+XZjv66dJvzPO20+p7d39LD31P8fSV9YQNA83XkkUcmDMJcHDzt37+f/wVKeeF3em3ZsoWmT59OQ4YMUYGYdK4gHLDwbKwlS5bQjTfeSGeddZZv+ymnnEJPPvkkffnll85Zoy0chm3YsEHN0BowYIB6DKNediIcoHEIt3r1avXusCgLP0pwzZo1tGDBgpj169en/D62oIXPc8stt/jO88477zh7pL9w3+A+IrWNiftcy5YtxT6Zcb4B+yjsQVf/YKo5KBwVl5fMscnuz/wDxfZgr78cNYCsDx47g97e/aTBbIvRnmZZvsHsoPZ31gcNRvvqqHivMdr1CfdSF3Bf5fMHU/sLIY6vjgHt4W03u87B5Xn384c05r2zf/bv59Rba//UryOgzuZ+6md/e4ddc3KM++2c33ft5n1XP/v7YeDxukTfDYHXbPazJO9Tgs+HJOgz4zs2tN2EdjL6nLefWlR5NVRj1Ttepvd6g/qezX9tZpvYUu/7AAAAAE0lQ0GYpWgQTVnghGGm306i/kXxfX/Ud4InzNKp94IZy+sN8r6My/LUIwAPBvD+0sBzXhOCsIO7ttPK7fvs9aEhGC9hQZj7GMSvqX61vW3By19bZe6ilSeHB2HXqHEn67jbZ8fLdTnl6zOwWt23S63zzD47eTPV84yxL3bQUg67+Hxf7KJrYo+ps67L+nviY3mdEdTp6/BoxKxr3kHYbKqchyAMABJr06aNJ6QIsmLFCtq1y/63K53l22+/VeVcf/316h1gFRUVsUcN8iP1OFBy8c/8qEN+HCHPYuKAit/PVVNTQ5dffrl6p5heRy7j/PPPp88++0w99jDZhR/h+Oqrr1J1dbV6H1jv3r1V3bgOZt04KOPz8Xbej4M9fqwhP7Ix3cCwOS58T7mP6PcjCPc5DmGl/phxzoBuYBAikQZ7Ew12G+yBYB5oDWAMYie7v59/oFiVKRwnD1Ib1xY4eO89jzkgL5cd0v7Odm/b2ufwHyMMtie8PueYgHsXNPjuu45QQfW1GP0mqM7e/aKW57/nNiMMCLkH3usMKs9i9n9fmUF19pYZ3K5mgJGEWB+Ki12D2ibce6P+wSFMSJs4zM+AKfCeM71dg+pqke6Tv60Tt2FwXaL1meB2MupoXIvaZh3nPb/3Ouzjg9rafx+C6uK5HwHXwTz1BQAAAGhCmQvC2GFlVDX5Aqpe7ARgi+fTzNOrqOww/77hj0eMJupjERkPBvAx0sBzvvM9GnHvazTn5Nk050+7qDZBCBb6aEQOKs7bTuqhRG89Ye1nh0sHX91s7RcWhJnbDHr5zjoVdAhBAwcobjDhPsKOH223+43naelCO2SLciyCsKaVC49G3Ol+BsxHI263H/nlPhqR3wmmPhMnP0UvOevU8u0+PBoRAEKVlJRQaWmpJ6iQ/Pa3v6UXX3zR+XJJb+EwjMOqt99+W72/ikMtnt3F7/aqrKykgQMH0uDBg+n444+niRMnqnPfdttttH37dvWIxZdeeonmzp3reywi78/7pRKC8cLHff311+qxiq+99poK3BYtWqTqcOyxx6o6cd049DrxxBNp8uTJajvPrnrhhRfo448/VjPR/vGPfzglFs7C18/3Sb8fEu5r3OekvpgdiQeyvewBYd/+IQOqiXEd5AFuWbL7M/91eged43wDwNIAvBqgbwjknscMAeSyE7WbMwhvDF5L51Wcwe/I12dR9XSOj7eRc169bI+Ig+Rh12gESHo9/Nz97HuZuLygvm2EGmaIpfG0VRLX4d83qM7eOpr9Jc6ocyR22d5rM9pE1VO4dk/9w84d1MauxPUOvmaL3q5J3ie5D1lC6hL0mfFdh9hu4dfq/dzZ+9rtZv9dtbVerrpe4zOm1jnX4amn/z6odhXq4mnvqG0KAAAA0IQyG4Ql4Ud97QHfdHAZUtkSHhDgY6SB50Iw/Cnj/R0qDBsfEoIR7X5KCMGYJ6iaTSt5dhfPAnuAkyV3dljjB2FqZs6K7VT/gRuI7aNaa38EYblP3Yu9e9R725okCHOdfAXNeZY/K/pMSO5XT6hHZvLjMWOfCScE3vtqLZ02x32EZ/r4e4q/r6QvbABo3lq3bk3t2rXzhBWScePG0WOPPWZ9w2Ru+eqrr9TjEt99913685//rAa//vu//1u9I4v/5HdY/c///I96VOD7778fm+nFjzDk2WRmHWfNmpWxsO7gwYO0Z88eFdZxHZ577jlP3Tj44Trz9r/97W9qNlkhL9w3uI+Y98TEfa1Vq1ZiX8yW0IFoU9DAeYQB72A8iCsPxsqS3Z/5B4qDBr19A8DSNQe2g5fZtnLZAeGKzjNgbV9LomMiX5/OHWh37mPQYHpyQuprDMQH1dkrUXnutelhg76f0VejhgFh98osw7dvUJ29/TL4s5j850suy3u+wH5s1D+4HxjlCRL1odB7rrdrUF0t3j4d0j8SCK6L0ZcC6hJ2rd46avdHleXts1z38Hazr9G8Zv0+BB0fOy//HLXvAwAAADShJgvC2L8fv8QTbCWDj5XKDMIDAnycNPBcEJxwKZlFD6KksmLb71GJEh3kRw1+9DJNVvuFBWGznRAq4FFyQhDWylkX9HjDBVaZ/BjE2P7rdqlZcDzLKPGxvA5BWFPiWYt7v/iaDr7xhPWz3e47t95MJ58zu3GDMPWuL6svv/MUVUrbDZP/tI/oK6tuc+TtqeDvKf6+kr6wAaB5Ky4ujvSeMH4s4Z133tmks504BOMwjN9xxY9U1OvXp08f9Wg+ns2FpXEX7hPcN7iP6PdEwn2N+5zUF7PGGfQOG8x2hQ7OqkHVVAageRBXHoyVJbs/8w8UBw16+waAxUFvf3kSz6CzRS47QpuptvUOloeFCyzy9Rn04xLtG01wfVX76G0bMjAfZ7d9wkH+oPM6bR5fH3QvneMjtLvvOnz31T6H/z4b5w66fl+dEzP7nuJ8RmPnE/u2uz5e38B+YJYnSNiHQu659xrSv0+J2HVN3B5B7RZ8rUKd1HXX0Go+Rluvrrlmtdo/9HvBUwd/29jlBPTVpNsUAAAAoOk0aRDGUgnDkg3BGA8I8LHSwHNBcMKgZJbIQVjv++1QyVriYVNYEMYz0fidTNby1T56aft2uvvR56n+gx122OEr38LvHFMHfE07X37e3v9Dfizd19Z+/P4ma/sHe6j+0c0045rNdPcb9n8t/sbDV0Q41l8/m3MNdIBe2vo81W6+U9sG2ePeL+dxiY0WhF1NGz+wTvXtHrrbCbaGr3uN3thl9cslzj6XPGX1nQO084VaGq6OsfvIQevc9s/p4+8p/r6SvrABoHkrKiqK9J4wfi/W8uXLae9e58uwCRZ+bCE/FnHs2LG++vG6Rx991NkTS2Mu3Ce4b3AfMe+Liftay5Ytxb6YVc6AdtDAqT0gGzSYH2cPBAcNrMqD3Xa5Qdskye7P/AO+qq5mUOCu9wwAy4PF7rV628O6zpp4md5BZ6FsIXDwtZ2zj2d9QACxsCZedrTrs67Nc8/NAXv72n3lWOePXXdAKOAh1dftc55jAwbgrXPUxI516mTR2166H/51bvkW7brDjvXUJep1GPfVrbNevr4+Xp50/VKd7XXm/dfZ9dfbNt5useOC7l1A/b39QChPJN9Tva+qz4lRD3/907xPFv2cklhZ0nXq6wL7fNC1+tfZ5Vqfd2t/T7/gulvflfFZYjaz7nZd3XV2HfXrVecM+D7XryVamzrXZX4PAAAAADSCJg/CGD/iMMo7w3ifZB6HqOMBAS5DGnguCM4MqeiL/mg4gxBU2Y8f3EMbnfcqJQrC2PB1L9Mb2hjf3g9ftmdnSUEYm1NLtbu0xyF9to/qH3Af33gz3a1v++qAesxet0jHMikIs+p43y7a+606gnb/CUFYkzj5HqpVwWXYcoBeus8NNVNnv0/va9r51BN09zvx/rJz6xX2PpvtvqmWz96n2mf3ODMPtb6WJv6e4u8r6QsbAJq3I488Ur2zSQ8rgsyZM4deeeUV+/umCRZ+/OBdd91FY8aMof79+3vccMMNtGPHDmdPLI25cJ/gviH1GRP3Ne5zUl/MPm3A3cMZDFWDy97BWFl8gNyjSQdR/QPFarBXqJN3gFlfZ1+HZ3A9FoLE6QPKqQRhZnlmmTHOsfp+yV+fcK98g+dCvzCvKcq9NduKz6PW+QMFOzjQ6ffDrnNNtVkvKZgwy+J9nOOM6zTbntvS21aOKNcRECT576O/X/rbW6hzYBDj5b12vg7jfEHl+OrPzL4ilBfCd08TtL+v3QP2C7xPCT4fElUO92XpHuv7Jmh/37UGfD7s/czrdNrZOMZXpuc4/31Q+5v1dtcbZSduU6f/RfmcAwAAAGRYTgRhrh/1nUDfP/VmOxS76BWF/87reJt0TFQ8IFDQQRi/52jezXTaJbYZ9+2wZ2TFlq/pjUfvjG0/bZ72LiSApnbyFXSy2zclGXtH12w67VEOw6zlox10zUJnlthbtWr70le/JvrgeRq+8Al6Sc0WJNr97D0Z/awgCAPIb/yesNLSUk9gITn11FPp/vvvt79ommDhR/B9/PHH9Ne//lW9V0zH7xrjGWNYGn/hPsF9Q+ozOu5j3NekPtj07IHQKAPeUFh4YD1f+0UsGBG2eajgRA5uMsP4/PH5EEpAFkXu+wAAAABZllNBWDbxoEBhB2F+9uwXXjgE02dHARSy2TRjxZ2xGV5qtuMX++iNd96n3V84j2tU266mBbffmfHPDYIwgPwW9T1hPPNq6dKl6l1dTbV8++239M033/g05bvLCnnhvsB9gvuG1Gd0TfJ+sKjMGS8ACs9EyWYA1JSMWVghpFk2GWXM0OLzibMEATIiet8HAAAAyDYEYQVu+Oqn6PbbEYIBBFq3g/Z+8TUdVA5QfdAjQzMEQRhAfuP3hEV5PGLnzp3p7LPPpt27d6tACkthL9wHuC9wn+C+IfUZHfcx7mtSHwSA7FlY4w95VbhlhHw8S8YMoOxHyGUqJF5INb5AzXlUHkIJyIKofR8AAACgqSAIAwDIIQjCAPIbv7OpVatWntAiyEknnUSPP/44HTyY3Fs+seTfwn2A+wL3CamvmLiPNd37wQAKlx1m8eC/RprhZb47SslkYODMxDHOgUeSQrZE7vsAAAAATQRBGABADkEQBpD/+JF1Ud4TNmDAAFq0aBHt27fPiUOwFOrCfYD7AvcJqa/ouG/l7GMRAQAAAAAAAJoAgjAAgByCIAwg/7Vs2ZLatGnjCS8knTp1omHDhtFf/vIXPB6xgBe+99wHuC9wn5D6io77Fvcxqe8BAAAAAAAAFCIEYQAAOQRBGED+40fWtW7dOuGssA4dOlDfvn1p06ZN9NFHHzmxCJZCW/7+97/Tgw8+qPoC9wmpr7i4T3HfQhAGAAAAAAAAEIcgDAAghyAIA8h/HIQVFRVFejxi165dadasWfT666/Td99950QjWApl4XvO937mzJmqL0h9RMd9ivsW3g8GAAAAAAAAEIcgDAAghyAIAygMHFS0bds2YRhWVlZG/fv3p8cee4wOHDjgxCNYCmXhe/7oo4/SUUcdpfqC1Edc3Je4TyEEAwAAAAAAAPBCEAYAkEMQhAEUBvfxiO3atfOEGUGWLVtGL7zwAn344YdQQBoaGujyyy8X+4SJ+xL3KQRhAAAAAAAAAF4IwgAAcgiCMIDCwe9x4hk8epgRpEePHtSvXz86+uijoYDwPe/evTtJfcLEfQnvBgMAAAAAAADwQxAGAJBDEIQBFA6euVNSUhLpXWEAYbgPcV/CbDAAAAAAAAAAPwRhAAA5BEEYQGEpLi6OPCsMIAj3Ie5LUh8DAAAAAAAAKHQIwgAAcgiCMIDCwo+y45k8eqgBkAx3NhgeiwgAAAAAAAAgQxAGAJBDEIQBFJ5WrVpRu3btPOEGQFTcdzAbDAAAAAAAACBYwQVhAAC5jr+vpC9sAMhPmBUG6cBsMAAAAAAAAIBwBRWESesBAHINf19JX9gAkJ+OPPJINaOHH3GnBxwAiXCf4b7DfUjqWwAAAAAAAACAIAwAIOfw95X0hQ0A+cudFYYwDKLCu8EAAAAAAAAAokEQBgCQY/j7SvrCBoD8xTN6ioqK8K4wiIz7CvcZzAYDAAAAAAAACIcgDAAgx/D3lfSFDQD5jQONZGeFdezQkbqWdaPeHftAM8b3kO+ldI8l7mwwhGD54fDiNnR4UWtxGzQNvifSegAAAAAAaJ4QhAEA5Bj+vpK+sAEg//Fj7tq2besJPcIM7jyEZvWeR3cN+j00Y3wP+V5K91jCfSSXH4n4875j6N/Gr6XvzX0VIvinGVvpP05dSb/oNVJsz0TQ3pnH94TblNtWavMwLToeRf86aYNYLkAh4c8Bfx6kzwkAAABAY0MQBgCQY/j7SvrCBoDC0Lp168iPSOSZRKO6nUa3HH0Pbax8kjZX/RGaEb5nfO9GdRun7qV0j03cN7iPSH0nVyCUSc2/nPWQ2J6JoL2zh9tWavMwCMEA4vjzIH1OAAAAABobgjAAgBzD31fSFzYAFAZ+71ObNm084UeYio796Kye59GdgzbTg1UIw5oLvld8z/je8T2U7q2E+wb3Eanv5AppMBSikdozEakcyBypzcNIZQAUMulzAgAAANDYEIQBAOQY/r6SvrABoHC0atUq8qywsvZl1KdjX1rQ93K6a9BDtKmqTgxeIHfwPeJ7xfeM7x3fQ+nemrhPcN+Q+kwukQZCIRqpPRORyoHMkdo8jFQGQCGTPicAAAAAjQ1BGABAjuHvK+kLGwAKB7//iR9/p4cgYcrad6T+nQbSZf2uo/sqHxfDF8gdfI/4XvE943sn3VMJ94lcfjeYSxoIzUdTNr4vrk+H1J6JSOUUqly4J1IZAIVM+pykZhgt21hP9U87Ni6jYeJ+AAAAAH4IwgAAcgx/X0lf2ABQWDjwSOYRiRyoHN/lJLq83w2YFZbD+N7wPeJ7lUwI1hweieiSBkLzEYKw3IMgDCD3SJ+TyCpn0MKZw6hU/byQahrqqXbVYlq8qpbqGzbR4lJ7v9Jjz6BxldpxAAAAAIasBmFFXYbTlLmLae7p/amkhbxPY+EBBGk9AECu4e8r6QsbAArLkUceqYKPqI9IZN3KutOYbhNoef9VYggDTY/vDd8jvlfSPZRwH+C+wH1C6iu5RhoIzUcIwnIPgjCA3CN9TiKpnEFrtzRQQ0MD1W1YTKPGr6AtbvhVupg2NdTT2umdaNyVm6je2qdhy1qagTAMAAAAAmQ1CBs0dSktXepYMJNGV5SI+zUGHkSQ1gMA5Br+vpK+sAGg8HDwwY/DSyYM692xgk7rPoluGLCWHqjcJoYx0Pj4XvA94XvD90i6dxK+99wHmksIxqSB0HyEICz3IAgDyD3S5yQhNwR7uoauvbKG6jjoepbDrhU0Su0zilbwdl73dC2tXrDQ3h9hGAAAAARolCBs/ty5sUCsetpwKjtM3j+beCBBWg8AkGv4+0r6wgaAwsSPSCwpKaHS0lJPQBKmd8c+dHqPKXTz0euppnKLGMxA4+F7wPeC7wnfG+meSfie871vDu8F00kDofkIQVjuQRAGkHukz0lCJ15LtQ0NtOnSCvVz6bGzaPXmLbTp6nGxfcZdVkOb7lpMo9TjEUvpjNV11NBQTzUL7GMAAAAAdI0ShE0bfAiVVIymmQuc2WFL5tKUIWV0qHBMtvBggrQ+HT/84Q/pP//zPxsVn1OqCwDkD/6+kr6wAaBw8WPxknlfGCvv0IXO7DFdBTAbMTOsyXDb8z3ge8H3RLpXQZpjCMakgVDbJ/Q6Gcs339Lu9/bTknveiu03tOFL2nvwS1pfYx4f3W17uPAv6TZhG5v9zrfW9m9p68Py9ih8ocuynXTO47tp5LWvedcLvn/9ezT7sfep92Lveqk9E9GP93Lae88nEdfLMnE/UuG5hw9/Tnutn/a+s1vc12Xekx+vep/mPfYelRvtLGl5x26a99BOOsRYL7V5GP1Yv7fpnBet9vyGr81ZDh6g5eK+Qd6i2W99Qwc/P0BLrpK2h0v02cg8/+f+4Odf0iN1u4R90yF/v7z+4gfUUtzfq/HbRTbw5a9U1d99Zadv2/IPeMs39MgG7/qU3WG12UGrjV7OfICskz4nUYy4rpYa6tfTLOc9YKHUYxMbqP7uWc77xAAAAAC8Gi0IU+talFDFqJlU7c4OO380VZR4j8kWHkyQ1qdDCqoag1QXAMgf/H0lfWEDQGErLi6mtm3beoKSMB3ad1DBy+k9zlKP5JNCGsg+bnu+B3wv+J5I90rC95rvudQXcp00EGpzBqo/PUDrX9xn2U9b//YNHeR1//iGttbaYdjst9IPqRo9CFv8Ls1+9St1Lbv/8jGNCQnDvr/yfbrtPfv8PEhfvjC+TWrPRPSyvYICr6D1skzcDzbmuYO09xvrPkcsJ90g7PsrrHb+wK77i1Y7m6Gjrt2Gj2j7p9au33xFDzy2k36sbZPaPIxermnS63YCdvCTA/SA+gx8Ri9an4fkwpeddNvfvrPqarXNGntdMm2bbOCT7H3zMz73rxygd1UzfEOPZDRcNb9fPqPX1ZfLd/RinbS/V64EYd9bs4/e5ap8sp8GerZ9RC/+Q1qfBvdz9Vb45ypd0uckodIKqjp1GW16toHq1kyNr+8yjmZdt5bWXjeLxnVx96+iZQ/zIxJraOFvOsX3BQAAANA0bhDmOLSsiqbMdWeHVdPMURVU0sK7T6bxgIK0Ph1SSNUYpLoAQGb0bvdzatfyF+K2xsLfV9IXNgAUNn5HVKtWrZJ6Xxiz3xl2Ji3vv4o2VdWJYQ1kHrc1tzm3fTLvBGN8j/leN6f3gumkgVCbHMC0rLUHY+nTz2iStj4dTRGEnfPiQfs6rCUoDFPhjArBrOUf39L2+vepXY4HYZmSbJunHYRd/x6t+Is79coJw7S2drW85yPayiEYLzzz7eF36fvadqnNw+hlm9Q1fXWAlgjb0pFM2yYb+KT/WRH629YDdmj8+nvafukSzuN8tyTqNyxngrC5bzl1+YrWO0Gn8ieV6tG7L/tniuU66XMS5uK76qmB3wnGnt5Cmy5zHofYbyHV1Fvr6uupXv1ZQwud94GNu2wTbXnaOYZnht11sadMAAAAgCYJwmyHUtmwaVS9xAnE5k6hqrJDhf0ygwcVpPXpkEKqxiDVBQAyY9JRP6ajy34mbmss/H0lfWEDAPBj8lINw8Z0P50uP+pGuq/ycQRiWcRty23Mbc1tnmoI1hwfieiSBkJtwQGM/civr+iBNf6B9/LHP6N37TFgtez9y0dq/cCtn9Hrn3/nrLWWzw/SijvsY9xB7fV8rP2kMWu79fMmZ9aZb3B/Fy1/5yvayzMueDn4FT3izFALYj6G73sL36ZzePaMU8Tund4w7PvX6yHYN7T9mfc8IRiT2jMR/XivaEFYrC3q99PrsbaKt6W3rdxj99PynU7I9I/v6N3XdzuPn3ub5r2ptSOHfXXu/dCWg5/T7Lk7acnr3scE7n3vYxrq1NMTTKT4aMTvXf2edV+Dw7CW6z+irfuczdY137bJG4Ixqc3D6Mea7H7+Hb3+4nvG4/p20gOfWJu0kGyMM3vs9QanHz5ktwH/rLeN3LZOwPeJ0994+WQ/jYnt/yU9UHeAdrv36VPrGOExi0Flf++Oj+iRPd/SQff40EcQBgdUdhDmbP/oc3rkE/48232t5aZ98c+31cf0viETzmMGbla99TbZ+8lnsev29DdL8PnD+23Q91Uy3zEtG75Uu+ihl/sdaYdjwWW5n9cX37S+i3g7t8dV79EK67snfr+s71p+vKLvc2WV+6Z2bXzdf9tH5zhtlOi7Ioj0OQmzsIZngc2iAbEZX7Zh/KjEurU0gx+VWDqD1tY10JabRnn24ZlkM9bUUUPNQu96AAAAKHhNGIQ5Sipo9PnVdhhmmTu5ikqzMDuMBxak9emQQqrGINUFIug9mqbPmkWzLBOH2uuOmWj/POuc0dRL7XcMTTT2gbiuXbvSpEmTaObMmXT++efT2LFj1TtrpH2bo9ZH/JIWDvsBTR7wY3F7Y+HvK+kLGwCA8SwhfndUsmFYt7LudELXk2hpv+vprkEP0YNVT4pBDqSO25Tbltv4hK4nqzaX7kUQvqd8b5vrTDCXNBBqEwaqHXrY4g1enMeBHTxIKx56j8555nPa/Z4T4Lz5Jb3+6h46Z8N7NM95LCGXzYPx9qD2d3Tw0y/pgSc/oHluQOUM5HvP8Zbz83f07qsf0piHPqbtn1s/fnOQloe8g8kXurCFO2hSfTxgcMMwe3YSn8Na+DGQdX8VQwOpPRMxy4gLam/vevvarYVnQz32AS1502nLD+wBfG9bOcdyW73zMZ3z2Cf0IreV+94iZ9YKBwPnbPiAVrzzDb3Y8CqV3/EeLVfXz8HYezRm/U7r+nfTI3vs+zNmw4f0wEd26OAGP55gItUgjF31V1rylnNN1vlfbLDDMG8IdoBW1LztC8GY1OZhzOM97viYXnRDEqu9H/lTPBCzgy+3nZ1gjBfnPgx8hZMHOyzW20Zs2zXWfeLivvmGtr9ofUas+7T9L/vpHGv/WLj16UG67bEPY+GsNDtLLPuq3bRVfT60svfxvfuOXn9Omq3k7W8tV+927rX7aMR4n4oFhPzuKq4/3xfrc+9+vne/LtzfGKcc89GI7uc4Vm9+/CV/lxxQfeqg1b7x7wynv4WeP6zfBn1fJfkdc5XVT5wQy+4fTrkf7aOBCcqKfZ4//5zmrbDLc0NVtb9V5/V/+8ruZ57PVbzc3Tv30ZKHrL6x03507cG/faIexxgrO+C7Ioj0OQmTVhDWZQDNQhAGAAAAgqYPwhwlAybQXHd22IKZNLqiRNwvVTy4IK1PhxRSNQapLglpIZCuScIeIZBqFFGCsKETY20zfVQvfxkFjEOwadOm0ciRI9UAXYcOHWjixIk0YcIE9bN0jKTXqOlW+06kY4Rttl40+hznvuj3wbk3QX0mcbmJ9Wv/M1o28j9p3tAfUvFhvxT3kdjnduucXh0Yf19JX9gAAC43DCstLfUEKYmUte9IAzoNpIV9r6A7B22mjQjDMobbktuU25bbmNtaugdB+F7mQwjGpIFQm3dAXGcPsCYIwh7g8ORVanmVNItiN21VI7Z20GUPanvfQbTkLzxgbZX7UEC488HHsVDCDXRefy5+vEkMXZQdNOZPn8fDsL/spwfcmWDffEWPbN1Fh4jHNW0Q9uIzbrt621JsK+0xli1ftKeGvN5g/awFYZNWc3lvWffL3s9bjsAIuzIWhLFlu+KD9lYdXn99nxPeWMunB2j5hh3ycRapzcNIZXhc9R4tefXL2GyevVa/U7OJaj6j3dbP776y09qH2/kb2s6PdnT79N+sjVa767O63NlLZtvawQe/G8v/WbGP1e7Dmv32O6mEzyXz3bfn/LOVYsGN+P4qp894lu+s63RnkMX7FF8bH3OOei+d/vl9jx7hx1d+/rkK87zlu/zn2fu3T2iSEwa59Y73c3eWld2OepsmdX5P3wz6vnLqFvk75i1a4daNPz/uvipsCy8r9nn+k1uWNwgbqtrD+Vx66u6Uq8I291i3Hvps3eDvCvd8JulzEib00Yj8+EP30Yj8TjD30Yg31FL9s84xeDQiAAAACHImCFMOK6OqyXNjs8Oqzx9B3Q4T9ksBDzBI69MhhVSNQapLmFjYI2iOQVgsdJh4jLg9EGaEJa137940depUNQOMjRkzhn71q1/FtnMYNmXKFOrfv7/nuGBu+waFRXYIJrY9B2HnTKfpsXulS1RuNOP7/hctP/E/6YoR/0kV7aI+HtGq86h4X1R9Ktm+aeDvK+kLGwBAx4/OSzUMq+jYj6b2Op9WD7xXDHUgedyW3KbctqmGYM35cYg6aSDU5gy0+gbctUe9xWY0xAfeh9Z9Hn+84Vdf0SOPv63Wlz+0j7bv+Yb2fvVd/JFfniAsHhQwvVzPOZzBYGlR4Y5Whi44CGNv0Uir3rvt8Wd7ser+wOPBIRiT2jMRqRxbQHtftc8OPv6mB2Fa0BElCNPLdB7jZreV/cg2934c/OSz2KwU/3nepnNePECv7/uWDlr30F2yEoSxy3fSvFe/dMIwZ9n3OS1f7w+LdFKbh5HKEF31Hi13AlI7tHDa3WrblhxscPurRwjybLs9tN36DLiztsz+bbatCs2M/u/yfzaCPpc2s2w7JNLvIwsLRJzynZlatz35gRPGGNu189t1FBbP59tdpL75Ns1T9f7O6pe7VJn2dUiL3RZ6u4SfP7zfit9XKXzHtHzG7qkcOqkQ/x8HaYUWXkkLl+X/nFmu+oDW/y1+/RxUjzGDMOfRm+ZnTC/PX3Z2gjBXp984wVfttTTMXd9lBM1YsJgWL5hBI7QZY1N5Ftizm2jZqVVUwTPG3P0BAAAAHLkVhDmKeo+mmQuc2WFL5tKUIWV0qLBfMniQQVqfDimkagxSXYJ4ZqqYAcLQic0wCNNmC2UlCANX9+7d1QywESNG0K9//Wv1CMTi4mLffjwrjNuQAzM+xtyu4/aeOIrvQ0BgZfXJwJl4HIRNHG3d/+k0urd3G/fz6Va5EyMGYUWH/ZKmDPgxXXrcDzyuGPmfKghjl53g3VY9/Ad0XLefUItfyWXGqHoiCAOAxsHBSevWrVMKw/p2PIpO7TaBlvS7jmoqnxDDHUiM247bkNuS2zSVEIzvYb6EYEwaCLXJA+7ljzuPKPvLHjXDQRzInfsWDazdT+9ysPTVAZq3xglzPvmMljz0Ho2540PPgKw9kG3PYnCPt2c2cKhgnsOu18EPPqExG6yyNN4Be6/wIIy9RUO3fubU+Ut6oHYn/VjcL05qz0Skcmx2eBIbQHfWuwPsbqiSaHBbaivPPfQEYY6rdtJs53FyB3d+qNaZ5xn4sp0WvPum/XjLoY97B+L1YCIjQRhbbNXrFTsM45BuyV3hIRiT2jyMVEYg511Ze9/6QP3sBh5brT/58+DOMHr9dZ4tFm87T9tYzLa1w6rvaPvjznk05rFBn0uXr3+EzQizyojNUooJL1/aHpuR9bD382g/UtN+ZGN8/V9poOrfZjm7nMdLWt8D/A4rVe/v6MXn9GPZLiq39tfbJez8YxL0W5vxfeXULbnvGGd22Qefk5p0GZsBFl6W//OsWfF+7BGt6v55PldO+4kzwqx2Ef4jhewGYaU043d11NCwhVaMl7YbSmfR+voG2rLqDCqVtgMAAEDBy8kgTGlRQhWjZlK1+7jEOWOpokTYLyIeaJDWp0MKqRqDVBdZfHZTckGPEzZFPYYH/rVwKSEpCDPWeWaxuaGCto9OD048xxnbIgVhUt2MR/V59neEnTceRnJIo90Ti7fNvNsUT6BibvcHQpk0atQo9Q4wfQaYi8OvoUOHxn7mxzidcsopKjjr1KmTZ98YNyBSbSwHVvGgzL1GbT/3eF/QxO3CbcF/RgvC2K9bHELjKv6LrnKCrzBLTvgBDegQbYaYugbPfU0ef19JX9gAAJJUZ4ax7mU96PguJ9GFfapp1dF3IxBLArcVtxm3Hbcht6XUxmHybSaYSxoItTkDrbF3+OynrXvsQVn69HOa7YQ13sHWT2j7R07Y9ZDzfiUeWHZmL/Cj2OZt0N5V4wnCOOw4QLfp77JxBnm959hJt/2NZ3Z8G3vn2DlP7qcX/7Y/dHA3cRCWPKk9E5HKcc1WA/rWcvBL2vrKPnrgHeeRfN98Sbc5IWGiwW3zfnjDBosehD13IBYQnPOM/V42NwizwwU7QFjx4ie0wf1ZvedoDz3ivGspq0FYCqQ2DyOVYdtNj3zyDb3+zn7vO6z0tt96wO6n1j2yZ4nZsyXVzCMVqNj7mWGW2bbnOI9Z5Edxyu8Iix8r3lONr+yrPqIXOeCJvSPsY9qq7t13Vp2lYDG8fHG7c78P7uPPL4c8H9Jt71jXEvKo0rBy+HM/1H1vmvVZsN/vZX0vvHrQ+swH9zfp/LH2EPttwPdVit8x9qMb7SX+qMPwsvyfZ2vdm1/Si8/x+8Hs953x4g/C3rLOZ99H9x1hK5x367nvUUv0XeGezyR9ThIpnb6W6hoaqG61E2yVjqLFd22imutmUIWzz9SrN9GWLTW0+JRS9XPFpZtUcLZ6ov0zAAAAgC53gzDHoWVVNG2+E4ZNHSTuEwUPNkjr0yGFVLof/OAH4vp0SXWRzLpqJa1du1ZZeZUeoCRyKd1wq3XcrTfQpeJ2g3OeyOe49Aa6zayXtu62W2+L1dul9tP20d12/aVWGU6dA7fL571ypbOfe62+fQLKjbVN4vNeer17PbdZ12but5KuVOVcSSs96x0rr1RlBF07l3nDpbPUQJrUB9Jhhl2JtvGMMX5M4pAhQzzrFT38CgzC/AGsChHd0CsWgLnBl3OcZ330IMxV2emntPSEH4gBGLt46A+pQ9EvxGNjuA7qPqYfgjH+vpK+sAEAgrhhWLt27TxBSxRl7cvUTKYpPc+lK49aSXcNeog2VdWJ4Q/8UbUNtxG3FbeZPQusTGzbMHyv8jEEY9JAqM0ZqNaWgwe/oRdf/EDNyHD38w62fkhbP7cHmnk5+PmXtH4TD7bvohXue7esZffO/fagsycI+5IeaPhSe0zf57ScZ4b4zmFxHh0We8TiP761yvxIeN9RXHMIwtSjCt/8kvZyAOAse/cddNrQ3ifR4LZ3uxA26EEYz45xz/WP72jv3/bROe5stDucYICXTz+jc/jnz52f//ENbX/VDs7yNwh7j277wOpj2r3g/vxInf3oPpszC0ibxTfwFTu4sGeI2et8YZbZtta68sf30+vaZ2fvnn3i+8XEe6oTym55z0e09ZP4548OfkVb//SeMBuMJSg/YLt6xKB7XmtRn/1YH5VI5TiPFeRHJD63k1pu2udpE74Z2/9kz2wz2yXw/KH9Nuj7yjouhe+YWDD61QFaoq8PKcv/eX6VxrwYfycd7/vuOx/Z76UzP1f8uM53vvLtqx6jKJadxRlhpWfQ6i0N1LBlLS1csJpq+RGJ/A6wp9fSDLXPKFrB29V7weqpds21tJ5/rq+hxcciCAMAAAC/rAZhJYMn0Mz5aQRhLUq97wwbH/DItAh4wEFanw4ppOLw67/+67/opz/9Kf3sZz9Tf/74xz/OaCgm1UWiPxYxucH5pp0RJs3Ois8ACng0YiyIMAKSgPLc8yaeERafhSU+si/CefX74JbhuzdSm2h89dTWifXKgGRmhLHgIIzvmdY+6lqDgzDP9ev7crs695zbz75uvezUgjDWqdUvaNFwfxh2zqAf0eGH/lI8Joi6L9p9SgV/X0lf2AAAYXh2bqphGOvQvgMNLT+OLu5zKd01aDPVVG6hTVVPiWFQIeK24DbhtuE24rbiNpPaMhE3BON7Jt3L5k4aCM1HzSMIKyy5HYQBFCbpcxJJl6l2GNZQT5uuHEedpq+l+oZauvY4a1u/ZVRrrV87vRNNvaHWWs8hWQ0trDTKAAAAAHBkNQizHUqHHiatD1dSYbwnrDK9GS886CCtT4cZUP3whz+kn//85779fvnLX6pQzN2Pg7Gf/OQnnmN1HKTxPtI2ZpYfKBbSyOGKlxYwScyBfa1sSej5pNBHDIKk0Eta5w2W/JxwRDhH4iBM28eltUWU88b30UIa33mE9peuWaIHghnkviNs5MiRaqBO3yY9GpH3O/vss/2PRgzsK1o45uC2jt9/i2onfxAWC72kde6xSSgr/oV6D5gZhM0Y/CM6tIV8TLDU6+Hi7yvpCxsAIBH+Pm7VqlXKYVinDp2oV8c+NLzLSLq039W0fvDDYihUiLgtuE24bbiNuK2kNkyE7w3fo3wNwZg0EJqPEITlHgRhALlH+pxEVjmOznBneJUupk0N9bRlYw3VbNxC9Q2baHGpvV/pKVNpKkIwAAAACJG5IKxFKfUfM4PmL3bCq8XzacaY/lSa7CByUS8afX51bBbY3MlVVJZCkGbigQdpfTr0cIpnfHHYxes5DONQjNf96Ec/Uj//4he/iO3LP3M4xtv0Mhgfw/vydnOby6xHIC1sSRyWJAhbcjwI84VVHk7gIpwjShDG/IGXXWaU80YLwmz+8viY+Kw0kXlvMqh37940efJkmjlzpgq+2HHHHUdnnHGG+vPUU09VgRkHY1OnTlV/l8rxUNcebwu+5tisNtWvvNti99kTesXbKt5+qQdQVZ1+GntX2OUj/pOuHGn//ZLjfkDtWiZ4LKJ1PaPNvpLmPeHvK+kLGwAgCn7UHgctPFNXD2Ci6tC+jLp06EqDOw+hCT2mqPDnd4MeFMOhQsDXzm3AbcFtwm3DbSS1XSJt27ZV9yYfH4eokwZC8xGCsNyDIAwg90ifk9QMo2Ub66n+acfGZTRM3A8AAADALzNBWItyGn2hE4CZLhxN5ZHCsEOpbMgUmrvEOW7BTBrdu0jYLzU8+CCtT4ceTnHwxeEVh1zmYxD5Z50bdHEQpu/Lf3fLYe7+ellMqovMCLeMMIwH7PUQJs45LupgvhOKyWUJpBBIDIaiB2HxsMk/yyhGOEcseEoQhAWVEeW8yQRhMbGgkcvVrjmLoVcUHHTxrK/zzz+fzjvvPDr99NN9s8USUtceEIRZ4u1l0fusEYSpcjztkXoQds7AH6ng6/zKH1Grw39Jvdv9XM0Q43CMQzLpmDgjqMzAPeLvK+kLGwAgKv5uLi4uVmEYv0dSD2OS0bOsFw3rcgKd1fM8FQatGVhD91duEQOjfMLXyNfK18zXzm3AbSG1URR8D/hRiHxP8nkmmEsaCM1HCMJyD4IwgNwjfU4AAAAAGlvKQVjR4Ck0f+4k6l90CFVMtGdwVU8fHp+9dVgZDZ/urJ9YQYcU9adJc+fTlMFCuFXSnybMdQKwJdU0c1QFlST9OLJwPAghrU+HHk7xowx5nTTLi/F6DsCYezyHXfwzv0eMH4dobnd/Nst0t0cTPptIDGFyOgjTwiuHHaIEX2fYORIHYUHluoFL4vNGCsK0nz3cesWCMVNqwU863EcmphSC5aA2R/yC5h/7Qzql10+oxa/i6zkQ42BsygD7s92Y+PtK+sIGAEhWUVFRWu8Nc/EsqCHlQ2l6rzl0eb8b6Zaj76G7B9fSpqo6MUhqjvha+Jr42vga+Vr5mvnapTaJyn0fWL7PAtNJA6H5CEFY7kEQBpB7pM8JAAAAQGNLMQgroappzuMLF8ynap7Fdckk6m+GVy3606RL7HBrvvO+r+ppVVQS215CFaNm2sdzWXOnUFXZod4yMoQHIqT16dDDqURBGG83gy43CONHKvI7w/jvvM7d7u6fXhBm88yySRii5HYQZoZP8dlE2v6asHOkFoSZ7RZ+3pSDMLP9pX2aIAjLNzz7q197+7Gmpl9b32nDu/6E2hyZ4PGIGcbfV9IXNgBAKjiAad26ddphmKui41E0rvskWtzvGrpz0Ca6d/Bj9EDlVtpU9ZQYMOUyrjPXna+Br4Wvia+Nr1G69mRxm3PbF1IIdnhxG3EgFKKR2jQM2ju7/mnGVrHdw0jlABQy6XMCAAAA0NjSeDRiEQ2aHH+X19Jzh1NpSYn6L17jSmn4uc52DsGmVsVnepVU0TQnHFu6ZD5NGVJGh/rOkTk8GCGtT4ceTnFYxev40Yj6euY+4tDlBl4cjumPPuS/czm8jbnvGdPLYmY9ACC/8PeV9IUNAJAqnsHLs8NSfW+Yrqx9GZV3KKeeHXtTZedj1KMDrzxqJa0b9HsxbMplXGeuO18DXwtfE18bX6N07cngtuY2L4RHIeoOL2pN/3HqSnEwFML92/i1YpuGQXtnF7et1O5h/nXSBrEsgELEnwfpcwIAAADQ2NJ7R9gRVTRtcTzoCrV4BlUVacd2HE1zrfXV54+mihJtfZbwgIS0Ph16OMWBFc/s4vX8J4dYvJ7/5J85/HL35bCMgy5p9pgelJnbXGY9ACC/8PeV9IUNAJAODmQyOTusQ/sO1KlDZ6ro2I+qOg+lk7uOoak9Z9KivlfRyqPX0b2D/5BTj07kuvDML64b15HrynXmuvM18LXwNUnXmgx3FlghhmCuX/QaSf9y1kPioCjIOAT7VZdKsT0TQXtnB7cpt63U5mFadDwKYRiAhT8H/HmQPicAAAAAjS29IMwJs5ZeMpemTZ5CUwLMnM9h2Fwa3VE7tn1/GlpR4i0vi3hgQlqfDjOg4tCLQy5pX32mGM8E4/eCSbO9GL8vjPeRtjGpfADIH/x9JX1hAwBkAodhrVq1UjOWMvW4RMZBUp+OfenY8uNpbPeJNK3nLLq4YjFd3u8GunHA7+j2gQ/QfZWP04ON8AhFPgefi8/J5+Y6cF24Tlw3riPXlessXUsquC25TbltC+lRiAAAAAAAAAC5LuV3hPUaUkVVI6dRNQdhc0dTmbifbdBUDsKqadpI65ghveLvCGtEPEAhrU+HFFJxuMVBFs8C4/CLAy/+OSj0SoVUFwDIH/x9JX1hAwBkEs9Y4plLbdu2pdLSUk+okwkdO3RU79oa3mUkje8+mc7rPZeq+y6jZUfdRNf1X0M3DbiLVh99rwqr7hy0mdYPfljN2KqpfILur9xCD1Ruowcrn4zZaOF1vI334X35GD6Wy+CyuEwum8/B5+Jz8rm5DlwXrpNU13Rw23EburPApLYGAAAAAAAAgKaTYhA2iKa5jzyMHIS5ptEgYZ9s44EKaX06pJDKxcFXJsMvnVQXAMgf/H0lfWEDAGQDz17id7vyjKZsBGI6fvRg1w7daECnQXRC15NVSDW91wV0YZ9qJyRbQdf3v51WDLiDVh19N912dI3mPrXuRmubHXatUMfwsVwGl8Vlctl8jkw85jAMtxW3GbcdZoABAAAAAAAA5K70ZoQNm2Q/GjE0CDuChp7LAdgFdFKXEiopKaJDxf2yiwcspPXpkEKqxiDVBQDyB39fSV/YAADZwu+y4tlMHOo0RhhW1r6jeixheYcu1KWsK3Ut607dynpQj7Ke1LOsl6M39eroxet4Ww+lpzqGj+UyuCwuk8tujBCM26qQ3wMGAAAAAAAA0Fyk946wQ7rR2AVLaemSGTT0CGm7pUV/mnSJtc/8sdRN2t5IeNBCWp8OKaRqDFJdACB/8PeV9IUNAJBNHOjwzKbi4uLYDDE9/AH7PWDcNtxG3FYIwQAAAAAAAAByX3pBWItyGj2XZ3stpfnjuon7lJ86134k4tyx1O0w//bGwoMX0vp0SCFVY5DqAgD5g7+vpC9sAIDG4AZirVq1UqFPtt4h1lzwtXMbcFtwmyAAAwAAAAAAAGheUg/CWpTTSXPsEMw1f3IVlbszw44op6rJ8z3bl144mspbaGU0Ih7IkNanQwqpGoNUFwDIH/x9JX1hAwA0Nn2GGIdBjfEesVzA18jX6gZg7gwwqY0AAAAAAAAAILelGISV0ojZTrg15yTq1m0EzazWAi9d9Uwa0a1bPDSbM4JKxTKziwc1pPXpkEKqxiDVBQDyB39fSV/YAABNxZ0l1rp169gMsXwMxNzr4mvka8XsLwAAAAAAAIDmL+UZYYd2G00XzD4pPsOrqJyGnz6T5i92Aq/F82nm6cOpvMjZzjPIZl9Ao7sd6imnsfDghrQ+HVJI1RikugBA/uDvK+kLGwCgqXEoxIqKilRQ1KZNm7wIxPga+Fr4mvja3OuU2gAAAAAAAAAAmpf03hHWjPAgh7Q+HVJI1RikugBA/uDvK+kLGwAgV7hBkfvoxOb2PjF31pf73i/30YeYAQYAAAAAAACQfxCEpUEKqRqDVBfIli40efkaWn5mF/vnrpNp+ZrlNLmrs139vIbmDXf3z3d2e6y5eJiwLW7YxYn3iWz4PFqzZh4Nk7alw7yXOYS/r6QvbACAXMXhEc+k4kCJZ1VxwMQzrDhsaur3ivG53fd9cZ24blxHrqs7+0u6JgAAAAAAAADIDwjC0vDDH/5QDKqy6Qc/+IFYl8SG0bw1a2iNR1C4wPv6A4IuZy43jtcCosbUqAEGgjAvBGGNgb+vpC9sAIDmIiwYc8MxFwdVLj3AikI/Vi/TPQ+CLwAAAAAAAABAEFYA7ADLP+A/7GI5BFD7e0IMJ0Qzgw0OEjIVdiQjxQBDXdfyydRF2BYsQRBW8Iz2caQahIn3CEEYAEDe4EcPchjFjyOUZo65wZgedkn04MsMvLhsPgefS6oDAAAAAAAAABQWBGH5LukQwQ424jOc5KCjSSEIyyEIwrKBv6+kL2wAAAAAAAAAAAAASA6CsLyWQojFoYMeRKQYQnCgEfW8yeyrmAFG7Gfv4x/jZdrtoD/S0XON6nhtmyfASRCECWGKCoG08jyPTYx4Lk8ZZjBklmFsV2GStj3ssY3+wMppK886/VGZWnuY9bC47eSW661LWD8KuUduHzTO578u4/GfZruZYvcuqN80HQRhAAAAAAAAAAAAAJmBICyfxQb6hW0BOMDQgwB/UBJN4wdhHGJoQYsKT7zXrkIZMVTS9zODIC34kfY3fvadw6pHLLCJeC5vyGOHNPH2sX+Ob7eOuTh+Pt/5nbYJDMPMoNPZ39+W7s9Ge/h+trlBnrlfor4k3iN1futYbb3aT6+jr12cOphl6QKv1dtvmgKCMAAAAAAAAAAAAIDMQBCWz9RAvx4WJCDsbwZjUXFQEfW4ZPZVVD3NMMoMe/wBjRSyiNcXFvyI547/HBYcRj2Xebyn3ub5PTgM8m8Lq5N5jDrXxfOEdd6wLn4d/nZm6pxioBXeH6V7JIdT3uDLW0dHaFtZIvabpoAgDAAAAAAAAAAAACAzEITls0RBgEEKE8JDFC+1r5phI5DKlfZjic5nXpd4nf5Awx+yOMGTVIcUgzD7Zz5erk9S53KY9Y61nRj86OVqAtvUe04um4Mh/tNeZ2+Ph0VmHeU6qzqa50wrCDOP8wZhwf3JvA+aiP2mKSAIAwCAvFRdQw0NNbRQ2uZS+9TR6vHCtnwzfjXVNTRQTbWwLcMW1jRQw7bVNE7Y1vTG0eptDVS3apywLU5dQ81CcVt00c6VSCp1yUj9zc9QlM8UAAAAAAAgCMtv/sfFBZNnE4nBRAR8XNQwIZl9lURhlOIPNPzXYoY8EqOcSOe2qPBGD2JSOJdDvgf2vuocbuCk6hIeNEni5XMfcI7n+vM6X5lmHeU6N0UQZtYhoYj9pikgCAMAgOZGDfI3BHGCLQRhXgjCHAjCIkMQBgAAAACQEgRheU4FEr4QReAGH+Z6FRZEDdPikgm3ktlXMQOMiIGGFLKIgY2HUU6kc7u8xyZ9LocYDrk8IVEywadGXYNVBpcVq58TinnWMbOOcp0bOwgLbaMgEftNU0AQBgAAzdm4VXVy6JLTg/aZCUggFQjCIkMQBgAAAACQEgRhec8e2JcCiGEXuyGAvU9ggKKCCCEc4CAhINhJJtxKZl8lUhglBBpSoOJcm+farfLmxY4zyklw7mEX6+UbxyZ7Locn5PHsbzGuSQVQxjV2OXOe0TYm+7zeusXXeevjr6MUeqUahAXfI/M4I/RT98Gsq7VPQP9UzHupSPdM28f4Wd2bRNeUAgRhAADQnCEIg+QgCIsMQRgAAAAAQEoQhBUIe8DeDjZi3JBABQKJBvPt4MFbhhkiNBIzwIgSaGjrVN312UMq3NCvS28Lo5wE57aDqDjv+S3JnMthBmHe94D575tZB18gJZACHXtdhHbV6uSuTzkIk+6ReJwRhDFf25h1N5j3UjGuzwi+zJ8RhAEA/P/27gVIq/q+/7jjf5LY/JMaNVGEcHFNEBBQURCBv2BXodhFQfHPKrBKEGRRoeIl6CJoIUidNTUaBYRVUzVeiBovubTeQhJNUnbaMfYfO5k6bacXo03MpJNW2ph8/+d7bs/v/M7vnOc8u2d3n2f3vTOvcZ/zu//OeUjnfHrOAmlVg7DwlYDRqxMTrwa0b+xbdau93s8f26gf9x32kwhAolcT7rHGsOr5AUZclnxtYxRuJMe1gomsNfjH7ddABkFNpS/71YmVICcxryr7kgph/H022lcJaPpsD3yVNeX1kVqDJ/N8R6xx9+/aXDx0i9t587CuyyJzscvjNom9T78GNDl2le+H8dk1p7KCPwAAAKDREYTBDy1SgQ2AAUMQBgBoZH4gkBmEdSfKgvDAfWN/9OjNsi8RBCyT+/ZlBz6pcaOgK2qf6NsOCNyBQSpc8PuohBdRaGH3U2mTs4ZUEBbUTYwXriHVf6LPoF1e2JFYh2vcVIBS0fs90DrGOU6VV9ZkriHot9LOnkfV821/9qTnmubXcfSbNxd7rvGajH6isVNrMM+FN9Y+c27WXievYeuzXaZS5xoAAAAYmgjChjrnUzEABhJBGACgkeUHYfZNeSsoMm/m13QTX/tJ100GFkE4oSFIeo6Vsri9P74VLFj1UqGJKroGqyxr35LHw4DFCFPSddIS++AKTLKUsQcORdZkXxvJc1n9fCfrRxzn2ZR1vqz1JPrOamMdd+5TtfnkfT9Sn4O+zODP3+fUHgAAAABDD0EYANQZgjAAQCPLDGWc4Uj+jX4/PLCeonHyQ4ewrs1sG9ezgwtHIOHPxeorlAiB7LkVXYMjKHEGIn69ZNhh16spCAv7MNeRqaQ9iOuZfVhBWHouyeOJcaqe76CtGQq5+kzReRe4dhNzyWpjzcG5T67jjrUVC8Ls4CtrDwAAAIChhyAMAOoMQRgAoJGVGYQFghv6lZDDLAslwqI8wXiFg7CccEk5w42iaxiwICwS7UUPgiFD1T2Igh2jTnK+7jXZxxPjVD3fQdtGC8L83xPXZi1PhHnMfdHfq5w7AAAAYKggCAOAOkMQBgBoZOUHYQXK7H4yaNCgIUh6jo6AxA8V7MAsyRluFF2D1X/WvhUJjTL3PJQVwqjctiXsgav/Imuyx06OU+18B32m1xy0yw3CHOv152uc08RcsvYod/4Rcx2uNVnH7GvLca3pOFpf55y5TgAAAGCIIQgDIJ8cN10+vOIxOWTj3zYcnbfO37WuRkUQBgBoZJnBiuOmfe6N/rb7ZJ95I9/ZvsIPGqzyZbv2xUFEMsxIByLpoCIMU6y1bN5XGcMZbhRdQypACeaU6M+vY4YjJQRh3hzMsCW/bQl7YJ+3cE2VPsMxHOs0x7XH8T+b/XrM8x2Ma/YZtckJwlzrjeZrjFV9LmE/qTqOay5uF7RJl2d8P1yfo2P77vP6SoZzyesfAAAAGFoIwgA0bAgW0fm71lWa2Z+Qb9z/UblrtqOsDxCEAQAaWZlBWPJvJVW/iR8FBzEj/NHPZiiSOmaMVwkjKiFNJBVU5IVAeWvwy+wnicIwLGaXp8MSVWsQVunfk9Mu0Ms9iOoY421OzDda0+bkONa8XOMk+lXOeVTK921x71+StV6dh2s9VeZijxG1Sdazrmnretm3Jef74frscwSqHoIwAAAADGUEYQCc4VKjca2rHMfILZ2HSvejh0h355Ey1VmnXARhAAAAdcQZONUrKzwDAAAAQBAGgCAsz/HnHi77Hz1Mdi37hPffj0jXue56ZSIIAwAAqB+uJ8DqVkOFdgAAAED/IAgD4AyWGo1rXb13tHTefai8dstRcrz3ef0tH5Luu4+QllS9chGEAQAADAR9LWIyRApeKWi/orJeFXn1IwAAADD0EIShZNPlojUbZMOai2S6sxz1yBUsNRrXunrr+As/Lq89+lHpnBoem3qEfOPRD8nDFybrlY0gDAAAYGDYf+urUUKwILBroCfXAAAAgH5EEIZeOXPRSmlf3y6tZ0THmmXpug2yoZ0grJG4gqWKt+Wl90V+0u0q6yPdB0Xe/7Vc638uNr5rXb1ztOy67xDZf9On/KfBouPtN31Euu/7hLQax8pGEAYAAAAAAAAA5SAIQ6/MX7FBNmy4ygjC0IhcwVJFOUHYtW99IPLue86ylDoIwqau/Jh0P/oxuWWc9/kPj5DHt35cOv/Q+33ckfL0o4fK0yuPcbYrA0EYAAAAAAAAAJSDIGwomDJf2q64StZfo6GV56qV0nrWxLB8vqzQYyvmG22sY01nyvmfazfar5CWk6dL65Xh58iVrTJ9WHjc/93s63w5a8lKuSrso335PJkYj4eB5gqWKoZgEPbpT0nX3kNk/7VHB5+XaSh2iDy+LChvvfYw6d57uLR/2mhTIoIwAAAAAAAAACgHQdhQcO4KuepzrdIyZ6pMnXOBrFy/QTasb5N5o7S8WhA2Vlou1/CqXdoWnCVTZ82XpatWy0VnjJWZ81pkqf49sA3rZeXiFmmZN1PGZgVh69dL+2UXSEvL+bL0ivV+GLZywVhjTAwkV7BUkQyiokBr77sS//zyrbfj+n55/HNQ9nrHzLr6E/QV9Fv5Cer6/QxwENay9qPS/eDHZX0UdFlB2LBPHyUPP3iofGNtGJSVjCAMAAAAAAAAAMpBEDYEzWy9SiqvM6wWhIXB1rqlcpYfnKlRMir8Pf1qxIwg7Kqlcqb/2XNGq1zlHVvf1hy2wUBzBUsVjiDM+4mDKQ2t5AN56Xnv9+d/Lb9MBFrvxb+nngjz6v4kDtCCMeJAbSCDMA25HrJCLjsI8/hh2UMfl+v74KkwgjAAAAAAAAAAKAdB2FDQNF3mL2mTle3rZf06Da7M8KpaEDZMpl/UHrS55ipZvfx8OfOkUXHdwkFYTv8YeK5gqcIRhCVecWiU+0FYGIrF5YF0u5zyAQzCnK89dARhqdcnloggDAAAAAAAAADKQRA26E2RC64IwqoVF7ZI86yTpPmSWp4I08+jZOyMFll6ubbzjl/TLheFwRdB2ODgCpYqagjC9LMfhgU/ZnjlCsLsVyYOeBA28Uj5xqOHytMrj0ken/pJuWXFkdI+1TjmmbpSA7L/LdsnJo/3FkEYAAAAAAAAAJSDIGywO/kCWW2FWvPa9G90WUHYqvNlbNhm1FlLZX3cpvIaRLPsqiXT/c8EYYODK1iqqDEIi70nP5HsdhqCpf622AAHYe03fUS67/uEtNplxx0j8049WmYeZx0fdrTsuu8Q2X/Tp+T4xPHeIQgDAAAAAAAAgHL0Lggb3SRjx47tc00jHWPXaMgGYaPC0Gn9Srlo/nyZf9HKIOSKw6uTwifG1svqS86XloVLZfWV640gbLpctGq1LF1wlkyddpa0LNfXJK6XFeeO9fufviR4Sqx9+fly/qL5MpUgrCG5gqWKGoKw7oNGYJXXzg63gs8DGoRNPUK+8eiH5OGLHGWuVyOGjr/o4/Laox+VTutpsd4gCAMAAAAAAACAcvQ8CJu8SK7btl22b+8HNyyWSa451GDIBmGeiXPbpP0aDbs2yFWXXyAtrearEYfJqKnny4qrgvINV62U1rO8z3FQdZK0rAhfiajWt8vKhWfKmKj/ifOkrT0sW3MBQViDcgVLFXmBllVuvBZRf8wnvqInxPTHr6thV/zzgfzk3YF8IuwY6djxIem++whpcZbnOVo67z5UXttxlHf9u8prRxAGAAAAAAAAAOXoeRB29togpNp0jaxetbqPrJWNt2oYtlaaXXOowVAOwoBqXMFSo3Gtq7DJ+jTYIdL90Ifltft74KFDpVufCpvs6LsHCMIAAAAAAAAAoBy9D8LWNLvLSzFJWjcShAF9zRUsNRrXuoo7Ri6/5Ei5ZUUvXPIpmePsu3YEYQAAAAAAAABQDoIwAPLhFY85w6VGofN3ratREYQBAAAAAAAAQDkIwgDIJ8dNb9gwTOet83etq1ERhAEAAAAAAABAOQjCAKDOEIQBAAAAAAAAQDkIwgCgzhCEAQAAAAAAAEA5CMIAoM4QhAEAAAAAAABAOQjCAKDOEIQBAAAAAAAAQDkIwgCgzhCEAQAAAAAAAEA56jwIGyYTzlktG7cRhAEYOgjCAAAAAAAAAKAc9RGEjT5FZs5bJEtXrZbVnkuXLJCZU5pkRFTe1CRNZv0eIAgD0CgIwgAAAAAAAACgHAMbhDVNl9arNgX9uNx8jbTOHOtuWyOCMACNgiAMAAAAAAAAAMoxcEHYyYvkmi1h4LVto1x9ySKZO2+mTD+9Wea2tMraG7bGgdh1S06rPB3WQwRhABoFQRgAAAAAAAAAlGNggrCmZlkbhmCbVs2VCcMddTxj56yUTdvCMGzhBGedogjCADQKgjAAAAAAAAAAKMcABGGjpXlN8LTXFq9t3t/+Gj16hIw441LZpONsu1rObXLXK4IgDECjIAgDAAAAAAAAgHL0fxA2fpFcp+1uXSmzM54EU01e/1u2XSeLxg+T2SuD4GzTJac56xZBEAagURCEAQAAAAAAAEA5+j0IG33u1cHTYMuMUGvkiEQdPwTbvkXWnjM2ODZtqffZG+uGxTLBqFcLgjAAjYIgDAAAAAAAAADK0e9B2CkXb/LbrT07PPaZc+XqbVvk6nPDvwH2mbmydut22XLZzEq74d4xHWv7WmmOjtWIIAxAoyAIAwAAAAAAAIBy9D4I27ZVtty8parV54z2281cEbzmMA7CPE1nr5YtZhh2cqts3LZdNi45JazTTBAGYMggCAMAAAAAAACAcvQ8CGuaLStv0nCqmI1LJvntJize6H++bmH42sPQzMu2yPbwb4L5xzQMu3mtzB3r/X7iYtmo/dy8VE4z2tSCIAxAoyAIAwAAAAAAAIBy9DwIq1HzOXOD3//PStmqodb1i+K/93XK4utk+7aN0npa8m+FRSZc4JVrmxpfw2giCAPQKAjCAAAAAAAAAKAc/ReErVorzcP199Nk6SZ9SmyLrD27SYaNnC2rb84OwYY1NcvaLUH9lf/HUV4QQRiARkEQBgAAAAAAAADlKD8Ii/52mMN1C4O/ATZ6zmrZose2bZSlZzSl+4iMPE1abwjabl07V5pcdQoiCAPQKAjCAAAAAAAAAKAc/RqEbb91rcxtCuqdsiT4W2Fq45pWaZ7SJCPCPkY0TZLpLatl47aw3U0rZXbYrqcIwgA0CoIwAAAAAAAAAChHv70a0WXCuWtlSxR2Zdjyx4vktJHu9rUgCAPQKAjCAAAAAAAAAKAcAxqE+UafIs1L1sp1N2+tBGBbt8h165bKgtPGutv0AEEYgEZBEAYAAAAAAAAA5Rj4IKyfEIQBaBQEYQAAAAAAAABQDoIwAKgzBGEAAAAAAAAAUA6CMACoMwRhAAAAAAAAAFAOgrA+duyxx8rIkSOlqalJxo4dK+PHj5cJEyb49Hc9pmVaR+u6+gAwtBCEAQAAAAAAAEA5CML6yIgRI2TMmDEybtw4mXTiJDll4hSZOmmanD7pDJk+eYZPf9djWqZ1tK620bauPgEMDQRhAAAAAAAAAFAOgrCS6VNdo0aNkhNOOEFOnniyzJg8Sy48tVWun7FZvjT7fnm4+Xl58pyXffq7HtMyraN1tY221T54Qgwoz7R5R8kjw91l9YYgDAAAAAAAAADKQRBWouHDh/uvOTxxwol+qLV86kr5s9l75GvnvCjPzP1uLq2jdbWNttU+tC/t0zUWgNrsvOIj8sZsd1m9IQgDAAAAAAAAgHIQhJUkCsEmnzhZ5p18rtw88zZ57OxvO0OvPNpG22of2hdhGEozsVVuefQF6e7u9r3w5F3SPsdRb1A6St7YcYjIFUc5yuoPQRgAAAAAAAAAlIMgrAT6CsMoBFswZZHcfua98tQ5rziDriK0rfahfUVhWK9fk3jJLtkfBiCmxzc56g5rlV0vB+X77211Hk94osOo0386nnDMRb28S1od9Ye2VrnrhW554f710jLR+zyxRdbveUG6X9glbcfbddMSe+3a3/D6Sl4vkYzrpvtx6dDyTY/7n93X4jBpvXd/pW5PTT9cDn7xEJEvHC53usoL8Pcg49oK5misrZfXIEEYAAAAAAAAAJSDIKwE+ve89FWG+hSXBlhfn/sdZ8BVC+1D+9I+tW8dwzV2EZmBkccZPsShmRE+hGGFU4MHYXGIMUDr6DNz2mXX142A5rntMidRZ45sf06vgeONYw7e9fC4EXD5+27sVRQQ7fL+6w7C0rRNXFevrZf3y37neeuQx/359y4Iu+3Sj4hoEPbFj8iBae46uaLvRE4QVnTtRRCEAfC13ef8f2LZt8Wqt2Vfqk73vs2yeZ91LLZPNsftl8l9+v+s4NVP9Km035fvk2XhZ+1v/65l6XqeZbuS/w8BWfX6xumy5o4u6eoy3SFrzvDKzlgjdySOe+5YI6e72ncsrBxbtCnZxrBpUVie6sfjj7dJFvqfXfOKygILO+zysH+jTlK6zzuuON0oXyibjLJ0uSdcW+q4R+fjH3ftWyhoV2xtlTEc9c39K7Cfrr0KhOM6+yhpP6JjYd2Yec30m5xroMA+Jo5HfTnWEex3+D1KlOmeOo7be6Pifl3XS9RHUJZ53Tuuxay6rmsk//tUMtf3JrG3GXtn70GRa7Lgd9TuM3s/wu9KoXOWdvoVdyTqmnMwj8fM6zRcS2Vu1dpZazPU53cWAAAA9YAgrJdGjBghJ5xwgkw6cZKcffIfypXTr5V1028ohfalfWrfOoaO5ZpDnsSTKvZN/E2PO4OwOGCKwo7E02T7ZdclZv0OeXygg7Aag68k42mlwRSEHd8mu8InwObpE18TZ8qc09KBV3x97H9a7vrc+FS5kx9cpfc8EW7l0evJbK/9PbHLOw/2tRUFTLvk8aJB2Kij5cm1h8nBL3w4qVNDsNAOq+wLh8lPW46WFld/Pr1GvLnd61630rVnPdHWEwRhAHx+EGaGVtEx799tM7iyAqu0IOxKBWhK2+7bJ/vscaKyAkGYH7glgjRvvF2OYK3PZN8UzQ4ADHqjtGOTbMqo59/gtW+eapuqgUN6Xv6NeqNd6qZtnvBmcbK+N0ZH2F9Wud5QNufqz/0O57445+Nca61rs+sHn+PyQvsZSY/ts/soeT/868Ca48IrHHPuS9WugZr20aP1M659f+3evqSDg3SY45/7VB9evXguGeesWpnOz1tvsswObLKOebz2yb3qY6l9DuZVmUN67wLWHhS8JmPO857Rp+v68MRBVryHeecsyT//ib332l5R/bqJaPtN3nWYvtaUq1323Mz9qYvvLAAAAOoGQVgvjRkzxu+7Pxx33HHOOWSLnqbxFA6LojaVUCIOnFIhWL6gXcEAIwzbanmqJjcIM8M7ozyxlm1mwFdhzqFSP11WCRl1jcZee8oMRXrieA2XUk+ABdJPL42Xlhsf9vbiG9J5XrKuS7p9QPeqyPnTeon98YOwjsp/47q6p3rN6X9reSLsGNl56e9Vgq88nb8nB2Yd4+ijIl5vRgCoktdJ755eU/p9d/2DDWCIcQVhvs2yz/v38b628HMvgjANsfS4M+QqFITlhGz9JueGbVYAYPBvwnptnTeYPWUGYfZ8ssZMC26oZ9+UDsZy92XNI5z7Gm9se13O+RS5ya5y15aun9jXQvsZcYytEn2Uvx/Fz1VfqXYNeGrax2BN2p9rbcGxNY4xrWAia8yEjHOWW5a33uQcBv7chBz7nPz3w9q7WM+uyZjzHLj61HDNNX4wr00d5lzzzpmpaL2stetx3bO8cvt49pjm/tTNdQEAAIC6QBDWC/p3u8aNGydnnnmmPPjgg/LMM8/0Ce1bx9CxavpbYXrjvsZgJg534kDCCHhqfGIqCAf6IQizxH3Y6zfCMfuzKWif9XetKv1XgrD9sj9Vt/dhSG9khVXZZcf7+/mNO+ZZxy3+nrrXpu2zxoz5e261jwOwKPhyHa99P9c2/778ynwSzLbl9+X+E9xtYzqHKPwyf8/hXxcF6uUhCAPgywzCrFCqx0GYBmph/64+evxEWH/LuRGbEQBURDdhvd8zbujXRRCWNV6kyjrdoZOuPTm/Ht9kV7lrs+tbN7cL7Wck43ybffTBfvhtXHPsL1l7ZKppH/Ov/XjtWpZoa567nO9eQl69AufTIZ5flXPdrxxz6U0QVup3NKyzMOvfM+9Ycq5Fz20wp1SfKRlrD8fW351rc7bLnpvZx4B/ZwEAAFBXCMJ6YeTIkTJ58mRZs2aNvP/++9JXP9q3jqFj6ZiuubhUgpqiQVgl/Inrm2FRowVhZp2Xg79h5f+eWEfGqxH9wEePW8FM2JeGHOb+RmPWvud9o7YnwlT1IMzfy5xrQMurnT/n2DrXsN9Kefg6Qn/vexaEqWknHCn/tMMRgv3xkbJ2uLtNhTVuwSAsOfeeIQgD4MsJwpbp3+SKwicNrML/7YkkQ6+MIEzbxQGW9ZRZVF4gCIv6T4/bX3Ju2Po3pruCV36FEjdajZuwWTdqkzeHQ84bz57EjXB7XsFnc3z/BnJifu4b+s45mLLmEzHL7d+NMXt8kz1jbZXPQbm51tR5qLqfEXvsUNYaXbLq6u85+xGdr9Qe9YOq14Dy55/c5wprH7VuzrVvrt1ft7NuRriRkj7/lfPjPp/V1huXm+dvoNnXq//Z3J+s/bL2oIZrMlU/ltWnPYdKveSe550zW6Vu6nsZc69d1+Ncd8zVzlqbwd4f/9r15jUQ31kAAADUF4KwXmhqapKpU6fKAw88EEZWffejY+hYOqZrLk5xmFMwlLGCnuB4bU+EZYVTASvMyHgiK1ItVDFDruxwwpi/zw5U3EGYGWilBX1U6hh9GmsayCDM/BthLROTZekwary0/HGXvPCj7Fcj6l5XW0/1ICwjIDKCsDh8ch0z2xQ1+kj5J9dTYRuOlMWu+obsa6DaXHS+BGEASlBLEFbzE2HpY6mgq3AQFtEwTf+ddM+57+TcsHUGKZH0zVTXTWbnDXnnDVuPIwirzMt9E7jIDdqqIUjWfCJmuVXXnINzPs6+a12be6/jNRXaz0i6L1/OGlNy6lbdj3jt6TX3parXgCq8j+7zYa41+dkMI7J+D+kc4usi+V1wBRdZZdXWG5c71uxfW9Ecqu1Zmfx9NsZOnQt3GJTag1qvSed5z+4z0YdxPLnneecsi65P1+76N9ex9tR16dof17HsuTn3J6zf399ZAAAA1JdDDtn4t84bsYNNXwRhY8eOlRkzZvg3x6OfX/ziF/Ktb31Ldu/eLd///vflP//zP+VnP/uZf+y9996T/fv3y7333iuPPPKIHDx4MGxV/UfH0LF0TNdcnGp8misKlpJhhhEUFQgjBksQlr+OIOSo6yBMzWmXu558wZ+L7uXxy+6Sx/e0S7sfhHn/3fO43LXs+GAd+5+Wuz433t1PIpTKlgrCtJ15bnRvXOfK6j/a+8r+9TwImzbvY5Xw6/YPiUShWOfH5JGqT4RZEusJrptgjt78jPn7+5l7TVZHEAbA15evRvT7jv53zWSMV3MQFlimIV3ufMqWc8PWGaSYZcZN61iyvvOGvPPGs0f7jI8n5+X3Y7Vx37R1yBovkrdOT2INdl9+2+AGcU9vsldfm+sc6Q3ucM6F9jOScb7NPvpyPyLaLmeM0mXtkSlvH825+p/zr3177ZVzbAYTRb97OfWKnE+HeH455zpxnvuDY83J68cV6iitaxyv9Zp07pW1r2YdY55mf8n9yjtn+Vz/HrjW7tdzXYeJc1Z7EJY5Z92DjGsFAAAAgx9BWC+MHz/e/9td//7v/+6HVW+//bZs27ZNLrroIrn++utl79698q//+q/y0EMP+cdvvfVWOffcc2XTpk1y9dVX+wHZb37zG/+/v/71r/0+9Oe//uu/5N133/X/G/3oGDqWjumai5sZYnmsMENv2MdhQxzgpAOH5JMxjjArIyQJAo2CAUY4frXwy1QkCKvUeVwedwReWUFYZc3ZT/ZU6lQJwlx7q6GKHjPn7jpWpuPb5K5vd8trr73m635hl7Qd76hnSZ7/SHpfqgVhfj+ua8UKwvz9SuxBz4OwR9Yd6gdfB2/4hNw2apicPe0T8s5tGoYdKj+d526TKS8IM/emhPNHEAbAlxWE2cd7EIQtM58oy6rXwyAsL8DrGzk3bGu+SZ7uy1kvq9/EDWm7r+CzeRPbeVPbKesGeiRnD+wyx03z6Mb1mp7eZK+6Nsf8zD0stJ+RjLXm7r3JKqt1P2LVzknZCozn3C+Ptb9Frv30tRmU33HFmsQ83H15EmPWcD5iees1y7L7zpxbX7GvY/+zuYaCa631mizyPbHq+IGRdy6zr4u8c1aF8/tsn8+M/lNt3deB+9/OanPOu6YAAAAw2BGE9cKECRNkzpw58j//8z9+WPXqq69KW1ubvPLKK/4xDbl+9atfSXt7u/+E2DnnnCPPP/+8/Pd//7df/tvf/lbeeecd+dM//VP5wQ9+4PehP2+88YZ8+ctflh//+MfhEfHr61g6pmsu2ewnopKisCYOO3JDrQy5bfohCEsJx4yCpSi0iT+bTxul+wnmkL1vqT2rEoSZQVJ0rDJmJVByHStdGIYVDcEa2vCj5I0dH5J3/u+n5Gzz+KhPyYs3fEik/SiZZh6vIwRhAHyuQEnDKe9/KxJPd9UchDmeEAsty3nlojsI8/ralxzb76PunwjLbmPfPHffTA/aJ4/rTVazT8cY1o3x4kFYOI9E/8oboyO8ue337Si355lz01z779FNdpW7tnR9LbdvuufvZ8QxtrLnWfJ+LOywriNt57y2+k7Va8C5Fk/ie5Cxfx7zWndem+GeJl8xF+6VPW7BMXPL/D22g4vgukjMLZyXPV/3d7cPJdYc8Odg7E1wDpN1kt8FT8Frskj9eF/tOv7eJvtK7lfeOTN59aLrL2SvOWCFUI69CtjjZoRXjmvDHrcevrMAAACoHwRhvWAGYb/73e/kxRdflMsuu0zefPNNP7zSYy+88IJs2LBBnn76aT8I+7u/+zv/uIZg//zP/+wHZ83NzbJs2TJ58skn/dcprlixQubOnStLliyRAwcO+HV7HoQF3E/1RAFOFPpUCWCMkMdkhkqmAQ3CjNCrEtSZT8iZa02GXpU5WE/UhWoNwirHjHrR/Mynh1zH0GPTZh0h35t1jLNs2LBjZOeyI2Rnra9H7CcEYQB8rtcXugKmMBzLrud40ivriS1/zP1yX5v3uyMIs8fRYCx1vF9DMJVzwza+cW/aJAvzboj6bSo3WJM3h03BuGbfyTm452XeCPdvgBvtVeomt8mxnmT/QUhglhe7ae4J++7RTfaQvbZKX+m9yurTrOM8pxlju+dZ3n4EazP7GqAb6nnXQO5awvlqnQLXvjMI8wT7kA4mXNdy5Rw5zn9cnlfmyVtvQvpc9/s5Mvc5Fq7P+DckdS3Z/74UvCZjzvrW9yRVR8sdQZIVhCXm6XHtfercu+ZuBVp+G+e/q+E84j4ygjDlX8vZ49bNdxYAAAB1gSCsF+xXI+rNn+XLl/v/h/Y//MM/+IHY5z//ef9psH/8x3/0g63t27f7r0v8m7/5G//1hxqeXXvttfLwww/Lv/zLv8jPf/5zeeqpp6Sjo0OeeOIJ/++KaXDWs1cjFkQAA9QVgjAAAAAAAAAAKAdBWC+MHTtWZsyY4YdI+qOvQfzqV78qF1xwgf+3wPTpsEsuucR/7aGGWS+//LK0trbKH/3RH8mFF14ov/jFL+Q//uM/5Jvf/Kb8/d//vd+H/mgg9tJLL/lPjEU/OoaOpWO65tJzlaeesp7sAtC/CMIAAAAAAAAAoBwEYb3Q1NQkU6dOlQceeCCMq0Q++OAD/6kuDbGeffZZv+zf/u3fwlLxg6+33nrLD81q+dF+dCwd0zUXAIMHQRgAAAAAAAAAlIMgrBdGjhwpkydPljVr1sj7778fRlaVH/3bXvokWG9/tG8dQ8fSMV1zATB4EIQBAAAAAAAAQDkIwnrh2GOPlXHjxvl/u+vBBx+UZ555pk9o3zqGjqVjuuYCYPAgCAMAAAAAAACAchCE9dKYMWP8vvvDcccd55wDgMFFv++uf7ABAAAAAAAAALUhCOulESNGyAknnCCTTpwkZ588T66cfq2sm35DKbQv7VP71jF0LNccAAwuBGEAAAAAAAAAUA6CsBKMGjVKTpxwosw7+Vy5/cx75etzvyPPzP1ur2gf2pf2qX3rGK6xAQw+BGEAAAAAAAAAUA6CsBLo3+1qamqSySdOlgVTFvkB1lPnvOIMuIrQttqH9qV9at/8bTBg6CAIAwAAAAAAAIByEISVZPjw4XEYpk9x3TzzNnns7G87g6482kbbah9RCKZ9u8YEMDgRhAEAAAAAAABAOQjCShSFYfoqwxmTZ8nyqSvlz2bvka+d86Iz9DJpHa2rbbSt9kEIBgxNBGEAAAAAAAAAUI6BDcI+M19ue+51efPNN6s68GSHNLv6KKg/gjClrzDUv+d1wgknyMkTT/ZDrQtPbZXrZ2yWL82+Xx5ufl6ePOdln/6ux7RM62hdbaNttQ9ehwgMTQRhAAAAAAAAAFCOgQvCagjBIr0Jw/orCIuMGDFCxowZI+PGjZNJJ06SUyZOkamTpsnpk86Q6ZNn+PR3PaZlWkfrahtt6+pzcJgiqzq7pPPyKY6yIWpBh3R1dcqqUx1l/e3UVdLZ1eXNp0s6FjjKh4iWG709uLHFWdYfCMIAAAAAAAAAoBwDF4S1PSgHNOD64YOy1FWesFQe/KGGYc/Krc7y6vo7CIvoU10jR470X3M4duxYGT9+vEyYMMGnv+sxLdM6ffEE2JTLO/1QI6FzlUxx1O0fBGEpdROEtUhHfwVgRuBWH9dlEkEYAAAAAAAAAAwOBGGDnB+EJQKGIIgauNChjoMwP5DqkBZX2VDgh1N9H8j5IVNqn/W6qJ+9JwgDAAAAAAAAgMGBIGyQSwdhnn4KPNwIwupWP1wXzuuxDhGEAQAAAAAAAMDg0Lsg7A/WyK1fuE1uq+K6pRPSbQnC+oU7eLBfgRc+JWa8ps5+PV4cDPhhUVTPCk20rOBYiSDMfk2e1Uc0dvAkUX6IZr8KsjJuMI9kuBEc0/6ivivMQCxsG8mYX3Js1xNPUZky9s4VwCX22WPvaxxaJeeW2hu7n4xwx9633PWnwrLonLbEa3S/XjHox12WR9sVDShrqRux1hddaxl71R8IwgAAAAAAAACgHD0Pwv7gVnn2dQ2ninhVHlzxmWR7grB+4QzCEk/+hCGAedM/DKbMUCUOiox6QXhiBTo9CMJabjSDizAwMsaJxq4WoKTWGq4jbpdYdyXAito7A6nU/MN2xjjR/CprylhDYu86kvtmjJvaV08whjG3cG2JY34/Rjtrvf5azPXaUvWjY1bAFoZr9jlNB2QW5/4WoeegaLta6qrg/Jrri0PBvL3qYwRhQP/S71xf0/97C9W59g4AAAAAAKA3ehiEXSdf0xDs9Vfl219/Vp6t4uUDWvfbcluL0QdBWL9IB2HBjf/oJn+63N3ODn8CVqilQUeqTjBeXhBmKza2TcdJBzF2ABV/doUyjmP+XOxAxBWo2fNL9FVlzYm69n5FrONhQJWs5zgftYRCjiDM3j/38TAIc9RL0PlUPY8uuvai66ilbvb1n7Xu/qL/Xrlu1gMAAAAAAAAAatPDIOxWebZwiDVMbn1OQ6wD8mCbcZwgrF/4N/o1+DKYgYze8HcGNH4oUgkUCgUizqDDDnbcoZDfjzlPo59CoUQYDCX6iCTaBvPR46mwyREcpeYVs4Iwe352X/5nbecIacy61r6bdJx43xyhVXpvw4DKG9d5jm2pPoP26VDOkzjX7nOa4tjfTHnn0153LXUtiT21jle95voQQRgAAAAAAAAAlIMgbJDLeuIlkhUE2IFMVjCQOJ4IRyJVgrAoxDD6dj4RVi2UsOabrRIOFQ3CqgU8zvllhD6VYNIoM+vmrCMxF79etSAsUgn/cteS6rPkIMw55yJqecqrlrrZ57fQNdeHCMIAAAAAAAAAoBwEYYNctSAsq7xYGGWFXK7wxw8/soMw1/jFxrbZgZub37f25Zqr41jW/pic83P1H8vbt6x1WMdrCsICVdfi6DNr75PHCwZhYb3q59Kma8/aS1stdcN1pPakp/MsD0EYAAAAAAAAAJRj4IKwz3xO7vuuHn9TXv/r16vy6z13qzQb/daCIMxdHgUsiZv+qfAqDAy8Y2bYERwzQ4egr0qdMFBI9GWFJnZgFI5dexDmmo+uv6MS7PhjRUGPI+xwhUvhfJIhj7dOo51zfol1eWPdaJ6DYJ/cQVh4zlyBlHkeXXN17K15DnsShDnXn9hHZY2bK7zenOFT8txVaJusMlstdT2O9QX7nzynwTH7HFU+p85PLxGEAQAAAAAAAEA5Bi4IU0YYVs3rz90m8z9jta8BQZi7PBCGEzE7YKmEPUHYFHEEDn5IEpVrP1bo4whNEn16c22x5hyNHdXPk5yf0c4V6DiOVdobawvrVfpN7o9zfnYQpqGb0YcZUNlBmIrDmIjdvz8n+zylg7BEH9WuA2ef0XGjn9R5ryUIC6TOk6eW9qWy1qfzsM8pQRgAAAAAAAAANKaBDcL60VANwsriDHsA9AmCMAAAAAAAAAAoB0EYCiEIA/oPQRgAAAAAAAAAlKOugrDDZ10qh128U/7X1S/LIZ//sU9/12Na5mpTFEFY7xCEAf2HIAwAAAAAAAAAylEXQdjhs9qC8MubSx6to3VdfVRDENY7BGFA/yEIAwAAAAAAAIBy9C4IK8GyB/+fM/TK89HztznmlI8gDECjIAgDAAAAAAAAgHL0Ogh7/a9fr+5vw+DLOn5x1xvOoKuIWsMwgjAAjYIgDAAAAAAAAADKMWCvRtRXHNrhVq1qeU0iQZjbiHMekaZ5a51lQH/65Ljp8uEVjzm/6/VM56xzd62ppwjCAAAAAAAAAKAcAxaEFfmbYNVoH+Y4eQjC0kYs/anM/KrInK8elJPaCMMwsBoxBIvo3F1r6imCMAAAAAAAAAAox4AEYYfPutR5Mzlyylfekb1vHZRf/vag7HWUm7QvezwXgrBpcuzktTLi1MDICw7I6X4IFjkoJ112Y1w+YvJiRx9A33F9vxuJa009RRAGAAAAAAAAAOUYkCDssIt3Om8kR/b+7Hfy9s9/I+9L9SBM+7LHcxnyQdh5b8isRPBVzUGZdJ6jH6CPuL7fjcS1pp4iCAMAAAAAAACAcgxIEFbotYjP/1p+WSAIK/p6xCEfhC39qSPsynfSUkc/akGHdHV1+bZcOMZZZ961u4M6natkih4bM09uuLtL7rl+noyx6taLz85ZJVvuDNbV5c3TVQd9x/X9biSuNfUUQRgAAAAAAAAAlGNAgrBDPv9j543khIJBmPZlj+dCENY3QVjXLYvTwdbwFunY45WpKAgbv1i2ep/rNwhrlg07vfnes1XalyyUFRfO9o7NkNZbdsjuHeEa0Kec3+8G4lpTTxGEAQAAAAAAAEA5CMKGiBFXvOMMuxIeeEdO21P5fGr7WmdfURDW2dnp/XeHLJ+ULB9z4Rb/+I7tRhBW91qkQ4O9G1vSxxpmDY3N+f2OdB8Uef/Xcq2rrE+8LS+9L/KT7vBzgfFda+opgjAAAAAAAAAAKAevRhwCRiz9afW/D/bwOzK+eZoMW2j+LbGDclKbIwwLg7COy1dJp/ffHW2TjPJJsnxHl3Rtbpf2TjNEcgRNJy2UddvulN365JhXtvvOdpmtx6P+Vy8PX1XYIS16fNQUWXj9jrh+184d0rFkhnw66m/UDGm9sVK++84bZOH4qCynrfmEW6hjebA281jn5VMqc0fpXN/vWClB2HvyE/lAXnreVWYjCAMAAAAAAACAwWBAgrDDLt7pvJGcUDAI077s8VyGbBB23gGZaQZeLlEI1vyinPqAXX5QJp1n9RkFVQvC0OvOdpkRlU1aLjv8smmyKi8I+6z3+R7v855O6bi8VRYuapX2P1kn84z+u3ZukdZTPh2OO0VW3K7175Gta6L69/j1dizTIG6MLN4c9Ldh0WyZcnqLV75VVpxaoO2Js71j6/x5d21f5/2+UGZPmSbzomN3d8hy79i8qe6/h4ZyuL7fMYIwAAAAAAAAAEAP9DAIa5aOJw/ImxqG9cD2537ivJGcUDAIO3zWpY75pRGEVcy67Uk5bt07wZNfuSGYygvCotcg3intM4KyGWvulK6dG2Te8Cm5QVjzNbuDdrOMfiNh/4knsOZukN3escTTZ8NnSLs+MXa3BnHheHevk9nDw3K/jqdqWz3meGKNVyP2K9f3O5YIosJAq1v/jYh+zH8rtLzy88u33g7/PTF+or60X+PHr+v3QRAGAAAAAAAAAINBD4Mw1bsw7Nit7pvJtSj6WkQ1ZIMwj/1qxNn3fk9GfnqajGx/Q8ZWCcFyX424wPt9zGLZsqdLdl87zyubIe13d8k9a2d4v+cFYWHZF1fJNLtvZfYfHptyuf49sk5Z5T/hVdFyo9dP+OrEKZdpHe/znjtl6/pWmRG+FrFIW4Kwgef6jsdSQZj3E38OQit59z2/7t53k4HW3u7o9/QTYXvfNQI0PxSLPhOEAQAAAAAAAMBg0IsgrHcOn9XmvJlcC+3D1bfLUA7C1Igr3kmEXEEY5pVlhmAip7Y7QjBlBVXzrt0dPAU2X5+8ip4OKxCEZQVMPQzC9POYqQul/ZYoENshy736BGGNwfUdj6WCMOsVh0a5BmFRKJbkaJdZThAGAAAAAAAAAIPBgAVh6qPnb3PeUC5C27r6zDLUg7BhS3/qDLvynLTU0Y+yg6qzNQDbLXfeuVu6diyXSX69vCAsCqHS4ZTPEYRFx5yvN4z+Rpn5SsQ56+Qer77/esUibQnCBpzrex6rIQjTz34Ypj+J8MrRzn5lIkEYAAAAAAAAAAwqAxqEqZ6EYbWGYIogrA+DMH0looZKibApPwgbNnWVdO7xPt+zQ9a1LZSFi1ql/U/WyTxn/57h02TV7V79PffI1jWtYf17vHr3ePU+64+34k+2Svui2TLllNmy8Bp9Cmy3VzamQFsdwxWEhWvY0ykblrRK63wjSEPpXN/1WI1BWOTatz7Ibpf6O4Q8EQYAAAAAAAAAg82AB2FKX3Gof+/LvrFs0zq1vA7RNOSDsPPeSPydsOoOyqTzHP0oR1AVvH5wiyweEx2rEoR5PjtnuXTcvtvvq2vPbrlz2/Lg6SxXEKY+O1uW39gpuzVA88p337lV2uePD8vHy8LP3xmXde3cIR1LZsinC7VVriDMm+PcddK5O2izYxlBWF9yfedjhYOwt+Wld43AKq+dHW7pZ4IwAAAAAAAAABhU6iIIixw+61I57OKdQSj2+R/79Hc9pmWuNkUN+SBs2DQ5dvJaGXFqYOQFB+R0K/g66bIb4/IRkxc7+gD6jh0sJeQFWlZ5/FpE/8d84it8Qkx//LpB2BX/vHuQJ8IAAAAAAAAAYJCpqyCsLxGEpY1Y+lOZGYVgbWuddYD+YgdLjca1pp4iCAMAAAAAAACAchCEDXEjznlEmuYRgmHg2cFSo3GtqacIwgAAAAAAAACgHARhAOrCh1c85gyYGoHO3bWmniIIAwAAAAAAAIByEIQBqAufHDe9IcMwnbPO3bWmniIIAwAAAAAAAIByEIQBQJ0hCAMAAAAAAACAchCEAUCdIQgDAAAAAAAAgHIQhAFAnSEIAwAAAAAAAIByEIQBQJ0hCAMAAAAAAACAchCEAUCdIQgDAAAAAAAAgHIQhAFAnSEIAwAAAAAAAIByHOK6CTsYEYQBaBQEYQAAAAAAAABQDoIwAKgzBGEAAAAAAAAAUA6CMACoMwRhAAAAAAAAAFAOgjAAqDMEYQAAAAAAAABQDoIwAKgzBGEAgEY3depU+dKXviT79++XAwcO+L7+9a/L9OnTnfXRuM477zz57ne/K93d3bJv3z5nHYyWzZs3+3uk9HdXHZSP6xMAAACKIAwA6gxBGAAUs3jxYrnnnnvkL/7iL+QHP/hBfJP5r/7qr/wbn3rT88Ybb5TJkyc727tMnDhRnnzySb+f5557zg90XPXUuHHj5Oqrr5aHH35YvvOd78iPfvSjeA76+0svvST333+/tLW1SVNTk7OPweiss87y9y7ai8i3vvUtmTVrlrPNQFu0aJEf2uk8X375ZVmwYIGzXp7bbrstXuvOnTv9Y3reNRDU60GvkVWrVqXaNbqyg4bZs2dLZ2en83v9/e9/3/9+6veu0b5TeUFYo1wnjfhvHkEYAAAAFEEYANQZgjAAyKcBmD5dpE8ZRTdh8zz22GPOflwuv/xyee211/y+t2/f7qyjN3ivv/56/0awazyb9rVp0yZnX4ON7s1DDz0Ur/vZZ5+VK664wqfhUL0+EabzfuKJJ/x5a+DS0dHhrJdFA9Snn37ab6/Xj15Hery5udkPdKJrIQrIBpOyggYNrO+9995EuJJFx9NxXf3Uq7wgrN6vk0b+N48gDAAAAIogDADqDEEYALjpzdgtW7YknhLRG66vvPKKPPLII/4TORpefeUrX5FvfvOb8Q31Wm5+7t2712+T9VSQPiH253/+5/640Rx0HB2vq6tLtm7d6j/NouGbziuqN1RehXbxxRfL9773PX/NTz31VE1P4w00Db80BNO5ayim15urnssll1ziP62kbc0nCbWPL3/5y/41whNh2fQ6efTRR+Pvi/73xRdf9L/L+p22v1OuIEz7uOaaa/zr7u67706U1YNqT4TV63XS6P/mEYQBAABAEYQBQJ0hCAOANL1RfPvtt8fhlgYWeuM876kQvTGu4ZjeTHeV2+bPn+8HYNq/BmJ2+cyZM+VrX/uaX670yR+9AZz3+sS5c+f6rxG76aabnOWDzcaNG+Mw6Ytf/KKzTr3S4DM6//qaRH1doquei641ui70FXeuOoNVGUHDrbfeGl831YIgDVv1qUM7qL7yyivjkLwen7zLC8Lq1WD4N48gDAAAAIogDADqDEEYAKTp3/qKQjC92a1PhtXyxE4R0RNBP/zhD2X9+vWJMh0reuWf+su//EtZsmRJog4a82Z/RM+xPlmoc9enWvQac9WznXbaaf4rILXdq6++KitWrHDWG6x6GzSY+6ffbf0bVK561RCElWuw/JtHEAYAAIDRo0fL/wdEliQNgvfRyAAAAABJRU5ErkJggg==;" vertex="1" parent="1">
          <mxGeometry x="120" y="80" width="1730" height="414" as="geometry" />
        </mxCell>
        <mxCell id="2SMoEjUvvKUqLIdtaoxj-2" value="" style="rounded=0;whiteSpace=wrap;html=1;fillColor=none;strokeColor=#FF3333;strokeWidth=10;" vertex="1" parent="1">
          <mxGeometry x="100" y="420" width="100" height="80" as="geometry" />
        </mxCell>
        <mxCell id="2SMoEjUvvKUqLIdtaoxj-3" value="" style="rounded=0;whiteSpace=wrap;html=1;fillColor=none;strokeColor=#00FFFF;strokeWidth=10;" vertex="1" parent="1">
          <mxGeometry x="190" y="160" width="290" height="60" as="geometry" />
        </mxCell>
      </root>
    </mxGraphModel>
  </diagram>
</mxfile>
